<svg width="1453" height="2447" viewBox="0 0 1453 2447" fill="none" xmlns="http://www.w3.org/2000/svg">
<path d="M1132.74 83.2538C1129.77 82.6401 1123.63 82.4175 1119.12 82.7138C1106.1 83.6893 1084.85 94.0317 1060.27 111.342C1009.43 147.245 978.928 199.893 974.091 260.196C973.668 265.178 973.125 269.363 972.866 269.477C972.644 269.499 969.089 270.378 964.995 271.263C907.694 284.198 859.259 328.318 835.834 388.735L831.333 400.397L826.995 401.081C818.45 402.392 802.096 407.549 789.698 412.733C736.708 435.049 703.748 476.566 689.647 538.653L688.766 542.601L678.877 544.894C662.36 548.809 649.137 553.353 629.483 562.06C599.91 575.085 578.937 588.321 556.413 608.355C529.9 631.779 509.407 658.492 492.92 690.931C486.048 704.572 470.735 746.468 465.751 765.768C452.51 816.182 453.64 851.026 469.737 887.359C473.06 894.859 478.038 904.176 480.669 908.193C484.073 913.259 485.219 915.845 484.486 916.633C476.736 925.326 475.513 927.105 472.813 934.102C470.421 940.575 456.066 1035.26 368.376 1623.22C312.431 1998.12 266.479 2307.42 266.238 2310.55C264.448 2331.29 279.057 2350.65 299.536 2354.8C312.678 2357.41 327.006 2353.62 336.206 2345.05C342.56 2339.15 1109.8 1189.71 1113.11 1181.13C1116.97 1171.14 1116.7 1157.11 1112.39 1149.12C1111.23 1146.85 1111.45 1146.83 1118.26 1146.13C1175.6 1140.61 1218.57 1105.63 1233.52 1052.45C1245.43 1010.21 1242.82 960.319 1225.65 900.952C1223.36 892.995 1221.73 885.828 1222.02 885.081C1222.3 884.335 1224.47 880.669 1226.76 876.945C1229.06 873.222 1233.78 864.324 1237.15 857.264C1255.59 818.932 1258.19 779.418 1244.92 741.602C1242.07 733.429 1232.84 715.397 1229.54 711.445C1228.68 710.359 1229.2 709.276 1233.09 703.917C1239.96 694.455 1248.92 678.728 1254.4 666.479C1279.16 612.044 1273.08 549.775 1238.15 499.743C1232.95 492.378 1231.94 490.273 1232.89 488.924C1240.21 478.027 1244.26 469.732 1248.66 456.958C1257.57 430.813 1257.85 407.875 1249.64 375.55C1246.73 363.922 1233.89 334.421 1226.27 321.402C1218.55 308.348 1205.06 289.421 1194.58 277.125C1172.37 251.08 1167.84 243.651 1164.05 227.93C1158.53 205.007 1160.1 183.743 1169.58 154.712C1174.83 138.622 1175.43 132.635 1173.05 121.855C1170.28 109.317 1162.38 98.1215 1150.79 90.6484C1144.09 86.3471 1140.77 84.9576 1132.74 83.2538ZM1120.13 141.2C1111.53 164.89 1107.59 194.242 1109.73 218.433C1112.6 250.414 1122.94 273.911 1145.34 299.173C1175.77 333.642 1195.1 368.005 1201.89 399.567C1204.05 409.513 1204.05 425.057 1202.08 434.051C1199.53 445.391 1193.33 456.721 1185.28 464.544L1182.65 467.176L1172.92 462.67C1115.06 435.945 1062.89 389.762 1038.81 344.129C1036.62 340.07 1034.37 336.736 1033.74 336.707C1030.27 336.545 1044.73 373.213 1055.49 391.728C1077 428.756 1104.98 460.674 1142.93 491.504C1152.72 499.463 1175.22 514.474 1185.79 520.158C1191.28 523.137 1195.73 528.821 1203.16 542.622C1214.29 563.211 1219.49 587.513 1217.41 608.468C1215.97 621.634 1211.29 638.479 1206.05 648.459C1197.63 664.718 1186.18 682.166 1182.2 684.703C1179.19 686.652 1155.15 676.73 1122.84 660.187C1113.57 655.322 1105.72 651.221 1105.51 650.926C1105.31 650.632 1101.88 648.668 1098 646.523C1094.14 644.286 1090.01 641.941 1088.81 641.157C1087.71 640.409 1084.29 638.445 1081.2 636.718C1078.24 634.934 1074.18 632.402 1072.12 631.071C1070.19 629.684 1065.19 626.253 1060.89 623.52C1047.5 614.601 1028.45 600.923 1016.02 591.195C1004.66 582.308 979.482 561.443 972.948 555.598C943.729 529.1 920.997 506.07 904.034 485.589C901.603 482.721 898.233 478.955 896.541 477.23L893.457 474.11L895.248 477.803C901.88 491.725 934.567 536.176 957.826 562.839C962.365 568.021 968.072 574.619 970.503 577.486C974.138 581.676 989.598 597.719 1006.37 614.804C1012.99 621.54 1035.85 642.581 1043.95 649.354C1049.07 653.581 1053.97 657.83 1054.82 658.693C1057 660.82 1073.45 674.028 1078.95 678.084C1081.47 679.911 1087.84 684.513 1092.91 688.296C1101.18 694.379 1107.71 698.831 1126.77 711.116C1139.89 719.61 1163.05 732.087 1179.58 739.537C1187.98 743.316 1188.28 743.647 1191.05 748.683C1197.15 759.826 1201.2 775.432 1201.54 789.282C1201.75 801.796 1200.04 809.821 1193.27 827.36C1187.04 843.499 1180.45 855.855 1177.22 857.287C1173.6 858.891 1096.25 829.895 1066.09 815.573C1027.83 797.485 995.853 780.641 967.233 763.699C940.802 748.031 896.38 718.988 875.563 703.772C862.091 693.963 849.76 684.809 846.009 681.753C843.964 680.107 839.051 676.174 834.926 672.974C823.134 663.813 801.709 646.004 789.058 634.904C782.638 629.318 776.556 623.969 775.358 623.185C771.664 620.259 774.81 625.439 780.131 630.816C782.82 633.569 790.156 641.223 796.401 647.814C802.704 654.535 808.498 660.63 809.345 661.492C815.211 667.401 819.872 671.987 820.245 672.131C820.432 672.203 822.461 674.165 824.699 676.422C831.899 683.596 842.233 693.48 842.886 693.732C843.166 693.84 844.894 695.472 846.773 697.269C853.091 703.673 866.833 715.837 886.442 732.517C935.753 774.166 997.611 818.3 1046.99 847.004C1048.65 847.968 1054.88 851.551 1060.64 854.953C1071.64 861.449 1095.96 874.265 1108.58 880.425C1112.55 882.383 1117.4 884.794 1119.38 885.772C1131.92 891.897 1149.13 899.506 1165.67 906.102L1173.56 909.256L1176.59 919.748C1193.95 981.973 1193.13 1030.75 1174.28 1060.14C1158.24 1085.03 1129.01 1096.9 1087.76 1095.45C1077.62 1095.07 1075.01 1094.6 1067.27 1091.61C1059.4 1088.68 1030.01 1075.41 1018.87 1069.83C999.101 1059.94 985.87 1053.12 984.392 1052.23C983.474 1051.55 980.633 1050.03 977.999 1048.8C970.135 1045.01 933.5 1024.12 921.505 1016.6C918.922 1014.96 914.28 1011.99 911.174 1010.04C901.575 1004.08 887.721 994.983 884.594 992.811C883.001 991.66 872.98 984.576 862.248 977.111C851.573 969.776 839.995 961.448 836.638 958.759C833.281 956.07 828.238 952.194 825.484 950.166C818.418 944.867 780.811 914.274 778.968 912.383C778.122 911.521 775.662 909.285 773.374 907.437C769.436 904.309 748.817 885.525 745.547 882.333C744.701 881.471 738.913 875.914 732.638 869.955C726.327 864.089 718.151 856.11 714.502 852.236C710.758 848.326 707.488 845.135 707.208 845.027C706.462 844.738 661.475 795.218 660.659 793.724C659.842 792.23 644.046 774.557 643.393 774.305C642.367 773.909 649.411 785.095 656.801 795.665C669.029 813.14 691.028 843.069 691.961 843.429C692.241 843.537 694.126 845.873 696.184 848.596C700.262 854.136 713.912 870.981 721.749 880.116C730.604 890.501 764.24 927.493 769.503 932.741C774.129 937.42 781.386 944.723 786.858 950.265C791.447 955.037 805.783 968.717 817.05 978.961C823.361 984.827 829.371 990.362 830.461 991.426C831.587 992.397 836.055 996.372 840.502 1000.13C844.949 1003.88 849.267 1007.69 850.149 1008.46C850.995 1009.32 853.305 1011.39 855.349 1013.04C857.393 1014.68 865.513 1021.14 873.353 1027.49C881.193 1033.84 889.556 1040.5 891.787 1042.21C894.111 1043.97 898.329 1047.2 901.292 1049.53C911.922 1057.81 939.124 1077.31 947.489 1082.58C953.516 1086.41 956.951 1089.45 955.694 1089.93C954.049 1090.58 933.615 1085.48 916.8 1080.17C887.905 1071.16 844.043 1054.55 772.697 1025.83C689.575 992.36 676.658 986.946 653.216 975.754C640.795 969.888 638.384 968.636 620.661 959.009C557.571 925.011 523.005 890.983 512.173 852.394C506.739 833.147 507.263 815.126 513.903 785.425C515.209 779.819 516.168 776.223 522.72 754.527C527.326 739.262 529.198 734.41 535.409 721.372C544.269 703.139 545.959 700.148 556.596 684.53C565.118 672.17 575.744 660.192 588.343 648.655C623.554 616.582 674.619 594.809 725.391 590.18C731.494 589.641 736.743 589.095 737.002 588.98C737.483 588.844 737.512 582.103 737.108 577.873C736.974 575.999 738.414 560.048 739.406 553.035C740.55 544.794 746.424 525.409 750.08 517.602C765.382 485.455 791.734 464.112 828.901 453.91C837.562 451.465 845.346 450.182 860.353 448.792C867.124 448.19 872.689 447.658 872.818 447.601C873.041 447.579 873.28 445.849 873.404 443.861C873.972 437.113 877.684 424.718 883.539 409.827C889.645 394.283 890.135 393.293 894.113 386.039C904.855 366.818 920.304 349.842 937.347 338.733C953.671 328.098 977.696 320.006 997.514 318.651C1006.98 318.015 1026.17 318.562 1028.87 319.606C1031.58 320.65 1031.68 318.439 1029.32 307.883C1021.93 274.266 1026.26 237.239 1040.99 208.516C1050.24 190.65 1066.78 171.414 1085.12 157.485C1096.01 149.256 1119.03 135.735 1120.89 136.455C1121.36 136.635 1120.98 138.738 1120.13 141.2ZM527.898 943.572C579.225 973.887 645.824 1009.35 699.957 1035.17C743.161 1055.7 753.43 1060.2 800.42 1078.98C874.263 1108.45 929.812 1126.99 1019.25 1151.87C1047 1159.68 1051.59 1161.13 1049.48 1162.14C1046.93 1163.19 990.786 1165.64 988.453 1164.74C987.52 1164.38 979.808 1159.37 971.214 1153.58C962.713 1147.84 954.29 1142.44 952.59 1141.57C950.925 1140.61 942.894 1138.37 934.754 1136.4C926.708 1134.48 907.76 1129.42 892.666 1125.2C877.666 1121.02 865.522 1118.04 865.787 1118.47C866.109 1119.02 871.733 1123.33 878.44 1128.17C885.147 1133.01 896.051 1140.87 902.759 1145.71C909.466 1150.55 918.476 1156.92 922.802 1159.87C930.722 1165.18 931.912 1166.82 927.748 1166.5C926.391 1166.4 913.612 1166.19 899.253 1165.9C872.208 1165.43 826.167 1163.63 805.312 1162.12L793.323 1161.24L782.672 1152.74C746.779 1124.09 688.137 1074.13 688.713 1072.63C688.857 1072.26 701.52 1073.61 716.882 1075.47C748.705 1079.39 750.657 1079.61 745.318 1077.33C727.608 1070.17 681.552 1050.36 669.432 1044.83C637.665 1030.21 567.195 995.612 561.298 991.729C559.239 990.398 559.239 990.398 560.508 992.388C561.246 993.531 568.001 1000.75 575.487 1008.57C582.916 1016.26 588.903 1022.96 588.759 1023.34C588.543 1023.9 568.76 1020.44 535.885 1013.97C525.908 1012.05 517.459 1010.61 517.071 1010.78C516.166 1011.18 506.523 1079.49 507.282 1080.86C507.475 1081.47 517.378 1092.47 529.18 1105.49C541.018 1118.42 550.77 1129.26 550.92 1129.43C551.737 1130.92 547.236 1130.36 525.774 1126.26C512.782 1123.82 501.857 1121.85 501.469 1122.03C500.786 1122.41 496.128 1151.69 496.587 1152.73C496.93 1153.5 528.427 1159.66 563.098 1165.64L591.961 1170.56L609.058 1186.81C626.643 1203.46 664.533 1237.48 682.694 1252.64C688.453 1257.44 692.72 1261.66 692.447 1262.09C691.404 1263.4 637.809 1257.29 592.362 1250.9L569.722 1247.63L559.64 1237.09C545.628 1222.57 518.466 1192.69 506.127 1178.28C500.513 1171.71 495.565 1166.48 495.084 1166.62C494.66 1166.88 492.898 1176.17 491.269 1187.33L488.173 1207.58L501.072 1222.2C508.134 1230.29 513.547 1237.09 513.123 1237.36C512.792 1237.66 506.375 1236.79 498.91 1235.3C487.274 1232.95 485.379 1232.87 484.803 1234.36C484.155 1236.04 479.901 1263.45 480.245 1264.22C480.417 1264.61 530.763 1273.86 543.62 1275.82L553.016 1277.3L572.745 1296.17C597.078 1319.5 616.306 1336.89 648.194 1364.52C655.101 1370.51 656.939 1370.47 614.987 1365.85C602.137 1364.43 578.218 1361.42 561.866 1359.07L532.083 1354.87L511.153 1331.89C499.615 1319.29 487.189 1305.38 483.626 1301.01C479.97 1296.59 476.678 1293.18 476.291 1293.35C475.773 1293.58 469.508 1334.25 469.852 1335.03C469.909 1335.16 471.809 1337.18 473.975 1339.62C476.083 1341.94 477.746 1344.29 477.566 1344.76C477.386 1345.22 475.49 1345.14 473.237 1344.59C471.076 1344.08 468.973 1343.69 468.714 1343.81C468.42 1344.02 467.148 1350.92 465.875 1359.22C464.232 1370.7 464.019 1374.58 465.066 1375.2C465.834 1375.71 476.78 1377.9 489.435 1380.1C501.997 1382.27 513.109 1384.31 514.135 1384.71C515.068 1385.07 527.296 1396.43 541.222 1410.06C567.119 1435.17 572.153 1439.9 598.002 1462.63C605.963 1469.78 612.424 1475.81 612.28 1476.18C611.812 1477.39 550.09 1470.4 513.531 1464.86L494.573 1462.05L480.921 1446.6C473.407 1438.02 465.198 1428.74 462.71 1425.74C460.186 1422.84 457.819 1420.64 457.338 1420.77C456.656 1421.15 446.529 1484.88 446.952 1486.01C447.16 1486.3 454.122 1487.71 462.442 1489.2L477.609 1491.84L489.362 1503.88C512.402 1527.78 567.954 1580.2 571.592 1581.6C572.059 1581.78 572.381 1582.33 572.165 1582.89C571.481 1584.67 511.582 1577.95 468.714 1571.26L457.401 1569.47L448.037 1558.46C442.875 1552.39 438.286 1547.62 437.934 1547.7C437.381 1548.02 430.056 1591.72 429.916 1595.41C429.929 1596.49 431.163 1597.18 435.168 1598.19C439.955 1599.4 440.873 1600.07 447.707 1607.64C465.324 1626.98 495.027 1656.67 517.884 1677.71C524.834 1684.14 530.657 1689.61 530.772 1689.86C531.359 1690.84 529.169 1690.96 520.411 1690.05C474.597 1685.44 423.774 1678.26 420.309 1675.85C418.587 1674.76 417.768 1674.66 417.408 1675.59C417.156 1676.24 415.595 1685.29 414.011 1695.5C412.426 1705.71 410.973 1714.48 410.793 1714.95C410.073 1716.81 460.929 1769.45 484.331 1791.03C487.579 1794 490.197 1796.94 490.11 1797.44C490.087 1798.61 446.39 1794.07 419.916 1790.18C409.163 1788.6 400.369 1787.78 399.894 1788.45C399.399 1788.9 396.986 1801.26 394.543 1815.65L390.182 1841.94L400.723 1853.51C413.278 1867.36 427.684 1882.25 440.765 1895.02C446.065 1900.17 450.317 1904.71 450.266 1905.11C450.15 1906.25 442.49 1905.54 408.995 1901.51C385.04 1898.59 381.25 1898.41 380.86 1899.98C380.593 1900.95 377.796 1916.8 374.716 1935.34L368.997 1969.04L383.654 1984.67C391.671 1993.33 400.814 2002.97 404.12 2006.07C407.39 2009.26 409.878 2012.26 409.698 2012.73C409.302 2013.75 396.272 2012.8 376.445 2010.29C366.251 2008.93 362.74 2008.86 362.308 2009.98C361.429 2012.53 357.148 2039.18 357.585 2039.99C358.122 2041.38 391.502 2045.15 421.798 2047.19C437.857 2048.35 450.614 2049.74 450.9 2050.39C451.129 2050.9 443.265 2065.45 432.805 2083.38C415.266 2113.27 414.101 2115.18 412.4 2114.31C408.906 2112.53 391.157 2094.64 373.332 2075.01C363.58 2064.17 355.191 2055.36 354.896 2055.57C354.379 2055.8 347.189 2095.25 347.533 2096.03C347.683 2096.19 352.652 2101.65 358.675 2108.26C364.734 2114.78 369.595 2120.52 369.638 2120.96C369.63 2121.82 347.677 2120.1 345.158 2119.12C343.479 2118.47 343.356 2119.07 340.271 2135.67C337.778 2149.07 337.74 2150.56 339.513 2151.24C340.539 2151.64 350.489 2152.8 361.587 2153.76C388.953 2156.18 389.455 2156.26 389.799 2157.04C389.971 2157.43 388.344 2161.09 386.128 2165.16C365.925 2201.96 361.198 2210.32 360.034 2210.83C359.258 2211.17 354.109 2206.19 345.828 2197.09C338.657 2189.29 332.619 2182.99 332.267 2183.07C331.973 2183.28 330.096 2192.31 328.259 2203.18L324.768 2223.05L327.536 2226.16C330.096 2228.97 329.993 2231.18 327.38 2230.17C323.986 2228.97 323.424 2230.14 320.642 2245.68C319.074 2254.19 317.953 2261.26 318.068 2261.52C318.182 2261.78 321.326 2262.24 325.138 2262.64C328.986 2262.95 332.152 2263.63 332.194 2264.08C332.351 2264.78 315.662 2298.86 311.935 2305.46C311.043 2306.94 310.037 2308.16 309.663 2308.01C307.611 2307.22 335.963 2074.63 362.177 1877.01C377.555 1761.07 379.344 1747.83 394.316 1641.27C407.666 1546.42 408.368 1541.54 434.155 1365.31C443.918 1299.19 474.002 1102.1 487.317 1018.16C494.854 970.586 499.524 943.768 500.545 942.233C502.35 939.5 509.017 936.392 513.009 936.325C514.495 936.362 516.655 936.874 517.889 937.565C519.087 938.349 523.65 940.968 527.898 943.572ZM692.929 1120.03C706.406 1131.77 720.987 1144.26 725.377 1147.88C729.709 1151.38 733.13 1154.73 732.986 1155.11C732.806 1155.57 729.539 1155.71 725.691 1155.4C707.586 1153.99 624.445 1143.33 610.799 1140.64C607.691 1140.08 605.647 1138.44 597.206 1130.04C566.184 1098.77 518.559 1046.09 519.803 1044.53C520.206 1044.04 526.53 1044.87 533.866 1046.42C549.391 1049.52 604.648 1059.38 619.888 1061.83L630.289 1063.48L649.409 1081.15C659.815 1090.85 679.417 1108.38 692.929 1120.03ZM798.828 1206.14C826.438 1227.08 847.987 1242.9 868.31 1257.18C886.516 1270 888.353 1271.35 887.189 1271.86C886.672 1272.09 849.08 1271.73 825.359 1271.26C806.319 1270.88 753.861 1268.21 752.182 1267.56C747.517 1265.76 648.918 1181.29 649.567 1179.61C649.675 1179.33 661.871 1180.5 676.695 1182.37C711.64 1186.53 758.683 1191.29 774.943 1192.2C777.248 1192.34 779.703 1192.65 780.392 1192.81C781.081 1192.96 789.345 1199.05 798.828 1206.14ZM749.932 1307C771.566 1323.71 794.391 1340.66 819.549 1358.52C829.442 1365.66 839.033 1372.47 840.812 1373.69C842.498 1374.88 843.795 1376.24 843.615 1376.71C842.823 1378.76 717.198 1376.26 711.32 1373.99C704.977 1371.54 610.417 1289.38 611.317 1287.05C611.641 1286.21 612.05 1286.26 635.783 1289.2C659.235 1292.04 706.148 1296.85 723.916 1298.03C732.244 1298.67 739.25 1299.12 739.53 1299.23C739.846 1299.25 744.495 1302.75 749.932 1307ZM724.09 1425.33C747.296 1442.97 766.054 1456.85 785.853 1470.82C800.351 1481.02 801.026 1481.5 800.701 1482.34C800.053 1484.02 722.256 1483.68 682.045 1481.78L670.077 1481.12L652.555 1466.54C617.266 1437.16 571.15 1395.56 572.357 1394.1C572.724 1393.71 584.548 1394.73 598.589 1396.4C629.127 1400.04 659.342 1403.13 682.186 1404.76C691.367 1405.41 699.027 1406.12 699.235 1406.41C699.479 1406.61 710.669 1415.11 724.09 1425.33ZM678.737 1528.95C697.28 1543.39 714.539 1556.17 742.078 1575.91C753.262 1583.87 754.38 1585.69 749.466 1587.87C745.07 1589.82 633.995 1589.61 629.051 1587.7C628.398 1587.45 626.224 1585.86 624.216 1584.12C622.207 1582.38 616.089 1577.12 610.48 1572.49C586.445 1552.28 535.102 1505.35 532.902 1501.6C532.164 1500.46 535.696 1500.75 561.639 1503.8C587.36 1506.87 635.049 1511.34 649.321 1512.13C652.796 1512.29 656.292 1512.68 657.074 1512.87C657.856 1513.07 667.583 1520.36 678.737 1528.95ZM634.999 1633.94C647.917 1644.07 665.499 1657.4 678.576 1666.84C684.085 1670.9 688.848 1674.66 689.17 1675.22C689.743 1676.51 678.66 1693.56 676.519 1694.67C674.802 1695.5 656.867 1695.87 631.624 1695.45C621.372 1695.36 607.738 1695.13 601.348 1695.02C594.958 1694.92 589.05 1694.67 588.21 1694.35C581.385 1692.03 493.114 1610.8 494.926 1608.61C495.328 1608.12 505.293 1608.96 517.066 1610.4C551.788 1614.58 569.656 1616.33 612.256 1619.27C616.865 1619.55 616.586 1619.44 634.999 1633.94ZM590.355 1739.34C598.137 1745.56 609.535 1754.35 615.719 1758.88C621.902 1763.41 627.21 1767.71 627.439 1768.23C627.762 1768.78 623.668 1775.78 618.49 1783.64C613.369 1791.63 608.499 1798.97 607.787 1799.98C607.169 1801.03 605.696 1802.07 604.583 1802.18C600.892 1802.57 547.807 1801.81 546.501 1801.3C544.075 1800.37 519.991 1779.17 499.889 1760.16C483.057 1744.34 456.058 1717.09 456.382 1716.25C456.49 1715.97 466.605 1716.98 478.88 1718.5C503.115 1721.53 539.109 1724.92 559.756 1726.13C566.986 1726.57 573.604 1727.19 574.537 1727.55C575.506 1727.82 582.572 1733.12 590.355 1739.34ZM552.712 1849.36C563.515 1858.03 567.423 1861.79 567.027 1862.82C566.739 1863.57 561.056 1872.74 554.461 1883.16C547.865 1893.58 541.542 1903.58 540.542 1905.34C538.175 1909.25 538.527 1909.17 519.731 1908.99L504.985 1908.87L499.655 1904.35C490.159 1896.18 463.731 1871.62 452.3 1860.13C437.09 1844.83 417.88 1824.34 418.132 1823.68C418.24 1823.4 428.133 1824.43 440.092 1825.94C464.291 1829.06 498.017 1832.22 519.425 1833.41C529.404 1833.94 534.149 1834.7 535.648 1835.81C536.81 1836.69 544.442 1842.74 552.712 1849.36ZM508.397 1955.85C508.368 1956.48 501.584 1968.23 493.153 1982.02C470.415 2019.55 472.953 2016.02 468.387 2016.19C466.139 2016.18 463.477 2015.58 462.278 2014.8C459.524 2012.77 440.217 1995.03 429.862 1984.92C410.277 1965.68 380.24 1932.97 380.852 1931.38C380.996 1931.01 385.756 1931.45 391.412 1932.35C412.287 1935.48 449.824 1939.03 478.017 1940.69L492.16 1941.54L500.337 1948.13C504.82 1951.79 508.427 1955.22 508.397 1955.85Z" fill="black"/>
</svg>
