<svg width="78" height="13" viewBox="0 0 78 13" fill="none" xmlns="http://www.w3.org/2000/svg">
<path d="M0.96 10.75V2.23H2.304V10.75H0.96ZM4.88953 6.43C4.88953 5.91 4.98153 5.398 5.16553 4.894C5.34953 4.39 5.61753 3.934 5.96953 3.526C6.32953 3.118 6.76153 2.794 7.26553 2.554C7.77753 2.306 8.36153 2.182 9.01753 2.182C9.78553 2.182 10.4495 2.354 11.0095 2.698C11.5695 3.042 11.9855 3.49 12.2575 4.042L11.2015 4.75C11.0415 4.406 10.8375 4.138 10.5895 3.946C10.3495 3.746 10.0855 3.606 9.79753 3.526C9.51753 3.438 9.24153 3.394 8.96953 3.394C8.52153 3.394 8.12953 3.486 7.79353 3.67C7.45753 3.846 7.17353 4.082 6.94153 4.378C6.71753 4.674 6.54553 5.006 6.42553 5.374C6.31353 5.742 6.25753 6.11 6.25753 6.478C6.25753 7.03 6.37353 7.546 6.60553 8.026C6.84553 8.498 7.16953 8.882 7.57753 9.178C7.99353 9.466 8.46953 9.61 9.00553 9.61C9.27753 9.61 9.56153 9.562 9.85753 9.466C10.1535 9.37 10.4255 9.222 10.6735 9.022C10.9215 8.814 11.1215 8.542 11.2735 8.206L12.3895 8.842C12.2135 9.266 11.9375 9.626 11.5615 9.922C11.1935 10.218 10.7775 10.442 10.3135 10.594C9.85753 10.746 9.40553 10.822 8.95753 10.822C8.35753 10.822 7.80953 10.698 7.31353 10.45C6.81753 10.194 6.38953 9.858 6.02953 9.442C5.66953 9.018 5.38953 8.546 5.18953 8.026C4.98953 7.498 4.88953 6.966 4.88953 6.43ZM20.6767 9.562V10.75H14.8327V2.23H20.5687V3.418H16.1767V5.842H19.9807V6.958H16.1767V9.562H20.6767ZM26.888 6.43C26.888 5.91 26.98 5.398 27.164 4.894C27.348 4.39 27.616 3.934 27.968 3.526C28.328 3.118 28.76 2.794 29.264 2.554C29.776 2.306 30.36 2.182 31.016 2.182C31.784 2.182 32.448 2.354 33.008 2.698C33.568 3.042 33.984 3.49 34.256 4.042L33.2 4.75C33.04 4.406 32.836 4.138 32.588 3.946C32.348 3.746 32.084 3.606 31.796 3.526C31.516 3.438 31.24 3.394 30.968 3.394C30.52 3.394 30.128 3.486 29.792 3.67C29.456 3.846 29.172 4.082 28.94 4.378C28.716 4.674 28.544 5.006 28.424 5.374C28.312 5.742 28.256 6.11 28.256 6.478C28.256 7.03 28.372 7.546 28.604 8.026C28.844 8.498 29.168 8.882 29.576 9.178C29.992 9.466 30.468 9.61 31.004 9.61C31.276 9.61 31.56 9.562 31.856 9.466C32.152 9.37 32.424 9.222 32.672 9.022C32.92 8.814 33.12 8.542 33.272 8.206L34.388 8.842C34.212 9.266 33.936 9.626 33.56 9.922C33.192 10.218 32.776 10.442 32.312 10.594C31.856 10.746 31.404 10.822 30.956 10.822C30.356 10.822 29.808 10.698 29.312 10.45C28.816 10.194 28.388 9.858 28.028 9.442C27.668 9.018 27.388 8.546 27.188 8.026C26.988 7.498 26.888 6.966 26.888 6.43ZM36.8311 10.75V2.23H40.5391C40.9231 2.23 41.2751 2.31 41.5951 2.47C41.9151 2.63 42.1911 2.842 42.4231 3.106C42.6631 3.37 42.8471 3.666 42.9751 3.994C43.1111 4.322 43.1791 4.658 43.1791 5.002C43.1791 5.386 43.1071 5.75 42.9631 6.094C42.8271 6.43 42.6351 6.722 42.3871 6.97C42.1391 7.218 41.8471 7.398 41.5111 7.51L43.5151 10.75H42.0031L40.1551 7.786H38.1751V10.75H36.8311ZM38.1751 6.598H40.5271C40.7751 6.598 40.9951 6.526 41.1871 6.382C41.3791 6.23 41.5311 6.034 41.6431 5.794C41.7551 5.554 41.8111 5.29 41.8111 5.002C41.8111 4.706 41.7471 4.442 41.6191 4.21C41.4911 3.97 41.3231 3.778 41.1151 3.634C40.9071 3.49 40.6871 3.418 40.4551 3.418H38.1751V6.598ZM51.8087 9.562V10.75H45.9647V2.23H51.7007V3.418H47.3087V5.842H51.1127V6.958H47.3087V9.562H51.8087ZM56.8552 2.23H58.1272L61.4392 10.75H60.0232L59.1232 8.434H55.8352L54.9472 10.75H53.5192L56.8552 2.23ZM58.8592 7.438L57.4912 3.706L56.0752 7.438H58.8592ZM70.8568 10.75V4.678L68.3488 9.286H67.5568L65.0368 4.678V10.75H63.6928V2.23H65.1328L67.9528 7.438L70.7728 2.23H72.2128V10.75H70.8568Z" fill="#E3D8CE"/>
<path d="M0.96 10.75H0.86V10.85H0.96V10.75ZM0.96 2.23V2.13H0.86V2.23H0.96ZM2.304 2.23H2.404V2.13H2.304V2.23ZM2.304 10.75V10.85H2.404V10.75H2.304ZM1.06 10.75V2.23H0.86V10.75H1.06ZM0.96 2.33H2.304V2.13H0.96V2.33ZM2.204 2.23V10.75H2.404V2.23H2.204ZM2.304 10.65H0.96V10.85H2.304V10.65ZM5.16553 4.894L5.0716 4.85971L5.0716 4.85971L5.16553 4.894ZM5.96953 3.526L5.89454 3.45983L5.89382 3.46068L5.96953 3.526ZM7.26553 2.554L7.30853 2.64429L7.30912 2.644L7.26553 2.554ZM11.0095 2.698L10.9572 2.78321L10.9572 2.78321L11.0095 2.698ZM12.2575 4.042L12.3132 4.12506L12.3859 4.07632L12.3472 3.9978L12.2575 4.042ZM11.2015 4.75L11.1109 4.79217L11.1601 4.89814L11.2572 4.83306L11.2015 4.75ZM10.5895 3.946L10.5255 4.02287L10.5283 4.02507L10.5895 3.946ZM9.79753 3.526L9.76753 3.62145L9.77077 3.62235L9.79753 3.526ZM7.79353 3.67L7.83994 3.7586L7.84156 3.75771L7.79353 3.67ZM6.94153 4.378L6.86281 4.3163L6.86179 4.31766L6.94153 4.378ZM6.42553 5.374L6.33044 5.34299L6.32986 5.34488L6.42553 5.374ZM6.60553 8.026L6.51548 8.06953L6.51639 8.07132L6.60553 8.026ZM7.57753 9.178L7.51879 9.25896L7.52061 9.26022L7.57753 9.178ZM9.85753 9.466L9.82668 9.37088L9.82668 9.37088L9.85753 9.466ZM10.6735 9.022L10.7363 9.09986L10.7378 9.09862L10.6735 9.022ZM11.2735 8.206L11.323 8.11912L11.2277 8.06476L11.1824 8.16478L11.2735 8.206ZM12.3895 8.842L12.4819 8.88034L12.5157 8.79882L12.439 8.75512L12.3895 8.842ZM11.5615 9.922L11.4997 9.84342L11.4989 9.84408L11.5615 9.922ZM10.3135 10.594L10.2824 10.499L10.2819 10.4991L10.3135 10.594ZM7.31353 10.45L7.26766 10.5389L7.26881 10.5394L7.31353 10.45ZM6.02953 9.442L5.9533 9.50673L5.95391 9.50744L6.02953 9.442ZM5.18953 8.026L5.09601 8.06142L5.0962 8.0619L5.18953 8.026ZM4.98953 6.43C4.98953 5.92207 5.07935 5.42166 5.25947 4.92829L5.0716 4.85971C4.88371 5.37434 4.78953 5.89793 4.78953 6.43H4.98953ZM5.25947 4.92829C5.4393 4.4357 5.70111 3.99021 6.04525 3.59132L5.89382 3.46068C5.53395 3.87779 5.25976 4.3443 5.0716 4.85971L5.25947 4.92829ZM6.04451 3.59216C6.39535 3.19454 6.81638 2.87864 7.30852 2.64429L7.22254 2.46371C6.70668 2.70936 6.26371 3.04145 5.89455 3.45984L6.04451 3.59216ZM7.30912 2.644C7.8056 2.40352 8.37432 2.282 9.01753 2.282V2.082C8.34874 2.082 7.74946 2.20848 7.22194 2.464L7.30912 2.644ZM9.01753 2.282C9.77021 2.282 10.4154 2.45041 10.9572 2.78321L11.0619 2.61279C10.4836 2.25759 9.80085 2.082 9.01753 2.082V2.282ZM10.9572 2.78321C11.5023 3.11804 11.9047 3.55228 12.1678 4.0862L12.3472 3.9978C12.0663 3.42772 11.6368 2.96596 11.0619 2.61279L10.9572 2.78321ZM12.2018 3.95894L11.1458 4.66694L11.2572 4.83306L12.3132 4.12506L12.2018 3.95894ZM11.2922 4.70783C11.1269 4.35235 10.9138 4.07054 10.6507 3.86693L10.5283 4.02507C10.7613 4.20546 10.9562 4.45964 11.1109 4.79217L11.2922 4.70783ZM10.6536 3.86918C10.4032 3.66052 10.1266 3.51361 9.8243 3.42965L9.77077 3.62235C10.0445 3.69838 10.2959 3.83148 10.5255 4.02282L10.6536 3.86918ZM9.82751 3.4306C9.53858 3.33979 9.25247 3.294 8.96953 3.294V3.494C9.23059 3.494 9.49649 3.53621 9.76755 3.6214L9.82751 3.4306ZM8.96953 3.294C8.5076 3.294 8.09854 3.38896 7.7455 3.58229L7.84156 3.75771C8.16052 3.58304 8.53546 3.494 8.96953 3.494V3.294ZM7.74713 3.58142C7.39869 3.76393 7.10364 4.00906 6.86283 4.31631L7.02024 4.43969C7.24342 4.15494 7.51637 3.92807 7.83993 3.75858L7.74713 3.58142ZM6.86179 4.31766C6.6308 4.62289 6.45375 4.96489 6.33046 5.343L6.5206 5.405C6.63731 5.04711 6.80426 4.72511 7.02127 4.43834L6.86179 4.31766ZM6.32986 5.34488C6.21512 5.72189 6.15753 6.09969 6.15753 6.478H6.35753C6.35753 6.12031 6.41194 5.76211 6.5212 5.40312L6.32986 5.34488ZM6.15753 6.478C6.15753 7.04452 6.2767 7.57546 6.5155 8.06952L6.69557 7.98248C6.47036 7.51654 6.35753 7.01548 6.35753 6.478H6.15753ZM6.51639 8.07132C6.7632 8.5567 7.09734 8.95317 7.51881 9.25894L7.63625 9.09706C7.24172 8.81083 6.92787 8.4393 6.69467 7.98068L6.51639 8.07132ZM7.52061 9.26022C7.95435 9.5605 8.45047 9.71 9.00553 9.71V9.51C8.4886 9.51 8.03271 9.3715 7.63445 9.09578L7.52061 9.26022ZM9.00553 9.71C9.28939 9.71 9.58383 9.6599 9.88838 9.56112L9.82668 9.37088C9.53924 9.4641 9.26567 9.51 9.00553 9.51V9.71ZM9.88838 9.56112C10.1963 9.46127 10.479 9.30731 10.7363 9.09984L10.6108 8.94416C10.372 9.13668 10.1108 9.27873 9.82668 9.37088L9.88838 9.56112ZM10.7378 9.09862C10.9988 8.87972 11.2073 8.59497 11.3646 8.24722L11.1824 8.16478C11.0357 8.48903 10.8443 8.74828 10.6093 8.94538L10.7378 9.09862ZM11.224 8.29288L12.34 8.92888L12.439 8.75512L11.323 8.11912L11.224 8.29288ZM12.2972 8.80366C12.128 9.21118 11.8628 9.55754 11.4997 9.84343L11.6234 10.0006C12.0122 9.69446 12.299 9.32082 12.4819 8.88034L12.2972 8.80366ZM11.4989 9.84408C11.1406 10.1323 10.7353 10.3506 10.2824 10.499L10.3447 10.689C10.8197 10.5334 11.2465 10.3037 11.6242 9.99992L11.4989 9.84408ZM10.2819 10.4991C9.83536 10.648 9.39403 10.722 8.95753 10.722V10.922C9.41704 10.922 9.8797 10.844 10.3452 10.6889L10.2819 10.4991ZM8.95753 10.722C8.37176 10.722 7.83925 10.6011 7.35825 10.3606L7.26881 10.5394C7.77981 10.7949 8.34331 10.922 8.95753 10.922V10.722ZM7.3594 10.3611C6.87455 10.1109 6.45669 9.78279 6.10515 9.37656L5.95391 9.50744C6.32237 9.93321 6.76052 10.2771 7.26767 10.5389L7.3594 10.3611ZM6.10576 9.37728C5.75306 8.96187 5.47883 8.49962 5.28287 7.9901L5.0962 8.0619C5.30023 8.59238 5.58601 9.07413 5.9533 9.50672L6.10576 9.37728ZM5.28305 7.99058C5.0871 7.47328 4.98953 6.95326 4.98953 6.43H4.78953C4.78953 6.97874 4.89196 7.52272 5.09602 8.06142L5.28305 7.99058ZM20.6767 9.562H20.7767V9.462H20.6767V9.562ZM20.6767 10.75V10.85H20.7767V10.75H20.6767ZM14.8327 10.75H14.7327V10.85H14.8327V10.75ZM14.8327 2.23V2.13H14.7327V2.23H14.8327ZM20.5687 2.23H20.6687V2.13H20.5687V2.23ZM20.5687 3.418V3.518H20.6687V3.418H20.5687ZM16.1767 3.418V3.318H16.0767V3.418H16.1767ZM16.1767 5.842H16.0767V5.942H16.1767V5.842ZM19.9807 5.842H20.0807V5.742H19.9807V5.842ZM19.9807 6.958V7.058H20.0807V6.958H19.9807ZM16.1767 6.958V6.858H16.0767V6.958H16.1767ZM16.1767 9.562H16.0767V9.662H16.1767V9.562ZM20.5767 9.562V10.75H20.7767V9.562H20.5767ZM20.6767 10.65H14.8327V10.85H20.6767V10.65ZM14.9327 10.75V2.23H14.7327V10.75H14.9327ZM14.8327 2.33H20.5687V2.13H14.8327V2.33ZM20.4687 2.23V3.418H20.6687V2.23H20.4687ZM20.5687 3.318H16.1767V3.518H20.5687V3.318ZM16.0767 3.418V5.842H16.2767V3.418H16.0767ZM16.1767 5.942H19.9807V5.742H16.1767V5.942ZM19.8807 5.842V6.958H20.0807V5.842H19.8807ZM19.9807 6.858H16.1767V7.058H19.9807V6.858ZM16.0767 6.958V9.562H16.2767V6.958H16.0767ZM16.1767 9.662H20.6767V9.462H16.1767V9.662ZM27.164 4.894L27.07 4.85971L27.07 4.85971L27.164 4.894ZM27.968 3.526L27.893 3.45983L27.8923 3.46068L27.968 3.526ZM29.264 2.554L29.307 2.64429L29.3076 2.644L29.264 2.554ZM33.008 2.698L32.9556 2.78321L32.9556 2.78321L33.008 2.698ZM34.256 4.042L34.3117 4.12506L34.3844 4.07632L34.3457 3.9978L34.256 4.042ZM33.2 4.75L33.1093 4.79217L33.1586 4.89814L33.2557 4.83306L33.2 4.75ZM32.588 3.946L32.5239 4.02287L32.5268 4.02507L32.588 3.946ZM31.796 3.526L31.766 3.62145L31.7692 3.62235L31.796 3.526ZM29.792 3.67L29.8384 3.7586L29.84 3.75771L29.792 3.67ZM28.94 4.378L28.8613 4.3163L28.8602 4.31766L28.94 4.378ZM28.424 5.374L28.3289 5.34299L28.3283 5.34488L28.424 5.374ZM28.604 8.026L28.5139 8.06953L28.5148 8.07132L28.604 8.026ZM29.576 9.178L29.5172 9.25896L29.519 9.26022L29.576 9.178ZM31.856 9.466L31.8251 9.37088L31.8251 9.37088L31.856 9.466ZM32.672 9.022L32.7348 9.09986L32.7362 9.09862L32.672 9.022ZM33.272 8.206L33.3215 8.11912L33.2261 8.06476L33.1809 8.16478L33.272 8.206ZM34.388 8.842L34.4803 8.88034L34.5142 8.79882L34.4375 8.75512L34.388 8.842ZM33.56 9.922L33.4981 9.84342L33.4973 9.84408L33.56 9.922ZM32.312 10.594L32.2808 10.499L32.2803 10.4991L32.312 10.594ZM29.312 10.45L29.2661 10.5389L29.2672 10.5394L29.312 10.45ZM28.028 9.442L27.9517 9.50673L27.9524 9.50744L28.028 9.442ZM27.188 8.026L27.0945 8.06142L27.0946 8.0619L27.188 8.026ZM26.988 6.43C26.988 5.92207 27.0778 5.42166 27.2579 4.92829L27.07 4.85971C26.8822 5.37434 26.788 5.89793 26.788 6.43H26.988ZM27.2579 4.92829C27.4377 4.4357 27.6995 3.99021 28.0437 3.59132L27.8923 3.46068C27.5324 3.87779 27.2582 4.3443 27.07 4.85971L27.2579 4.92829ZM28.043 3.59216C28.3938 3.19454 28.8148 2.87864 29.307 2.64429L29.221 2.46371C28.7051 2.70936 28.2621 3.04145 27.893 3.45984L28.043 3.59216ZM29.3076 2.644C29.804 2.40352 30.3728 2.282 31.016 2.282V2.082C30.3472 2.082 29.7479 2.20848 29.2204 2.464L29.3076 2.644ZM31.016 2.282C31.7687 2.282 32.4139 2.45041 32.9556 2.78321L33.0603 2.61279C32.4821 2.25759 31.7993 2.082 31.016 2.082V2.282ZM32.9556 2.78321C33.5007 3.11804 33.9032 3.55228 34.1663 4.0862L34.3457 3.9978C34.0648 3.42772 33.6352 2.96596 33.0603 2.61279L32.9556 2.78321ZM34.2003 3.95894L33.1443 4.66694L33.2557 4.83306L34.3117 4.12506L34.2003 3.95894ZM33.2906 4.70783C33.1253 4.35235 32.9122 4.07054 32.6492 3.86693L32.5268 4.02507C32.7597 4.20546 32.9546 4.45964 33.1093 4.79217L33.2906 4.70783ZM32.652 3.86918C32.4016 3.66052 32.125 3.51361 31.8227 3.42965L31.7692 3.62235C32.0429 3.69838 32.2943 3.83148 32.524 4.02282L32.652 3.86918ZM31.826 3.4306C31.537 3.33979 31.2509 3.294 30.968 3.294V3.494C31.229 3.494 31.4949 3.53621 31.766 3.6214L31.826 3.4306ZM30.968 3.294C30.506 3.294 30.097 3.38896 29.7439 3.58229L29.84 3.75771C30.159 3.58304 30.5339 3.494 30.968 3.494V3.294ZM29.7456 3.58142C29.3971 3.76393 29.1021 4.00906 28.8613 4.31631L29.0187 4.43969C29.2419 4.15494 29.5148 3.92807 29.8384 3.75858L29.7456 3.58142ZM28.8602 4.31766C28.6292 4.62289 28.4522 4.96489 28.3289 5.343L28.519 5.405C28.6357 5.04711 28.8027 4.72511 29.0197 4.43834L28.8602 4.31766ZM28.3283 5.34488C28.2136 5.72189 28.156 6.09969 28.156 6.478H28.356C28.356 6.12031 28.4104 5.76211 28.5196 5.40312L28.3283 5.34488ZM28.156 6.478C28.156 7.04452 28.2751 7.57546 28.5139 8.06952L28.694 7.98248C28.4688 7.51654 28.356 7.01548 28.356 6.478H28.156ZM28.5148 8.07132C28.7616 8.5567 29.0958 8.95317 29.5172 9.25894L29.6347 9.09706C29.2402 8.81083 28.9263 8.4393 28.6931 7.98068L28.5148 8.07132ZM29.519 9.26022C29.9528 9.5605 30.4489 9.71 31.004 9.71V9.51C30.487 9.51 30.0311 9.3715 29.6329 9.09578L29.519 9.26022ZM31.004 9.71C31.2878 9.71 31.5823 9.6599 31.8868 9.56112L31.8251 9.37088C31.5377 9.4641 31.2641 9.51 31.004 9.51V9.71ZM31.8868 9.56112C32.1947 9.46127 32.4775 9.30731 32.7347 9.09984L32.6092 8.94416C32.3705 9.13668 32.1092 9.27873 31.8251 9.37088L31.8868 9.56112ZM32.7362 9.09862C32.9972 8.87972 33.2058 8.59497 33.3631 8.24722L33.1809 8.16478C33.0342 8.48903 32.8427 8.74828 32.6077 8.94538L32.7362 9.09862ZM33.2225 8.29288L34.3385 8.92888L34.4375 8.75512L33.3215 8.11912L33.2225 8.29288ZM34.2956 8.80366C34.1265 9.21118 33.8613 9.55754 33.4981 9.84343L33.6218 10.0006C34.0107 9.69446 34.2975 9.32082 34.4803 8.88034L34.2956 8.80366ZM33.4973 9.84408C33.139 10.1323 32.7338 10.3506 32.2808 10.499L32.3431 10.689C32.8182 10.5334 33.2449 10.3037 33.6226 9.99992L33.4973 9.84408ZM32.2803 10.4991C31.8338 10.648 31.3925 10.722 30.956 10.722V10.922C31.4155 10.922 31.8781 10.844 32.3436 10.6889L32.2803 10.4991ZM30.956 10.722C30.3702 10.722 29.8377 10.6011 29.3567 10.3606L29.2672 10.5394C29.7782 10.7949 30.3417 10.922 30.956 10.922V10.722ZM29.3578 10.3611C28.873 10.1109 28.4551 9.78279 28.1036 9.37656L27.9524 9.50744C28.3208 9.93321 28.759 10.2771 29.2661 10.5389L29.3578 10.3611ZM28.1042 9.37728C27.7515 8.96187 27.4773 8.49962 27.2813 7.9901L27.0946 8.0619C27.2987 8.59238 27.5844 9.07413 27.9517 9.50672L28.1042 9.37728ZM27.2815 7.99058C27.0855 7.47328 26.988 6.95326 26.988 6.43H26.788C26.788 6.97874 26.8904 7.52272 27.0945 8.06142L27.2815 7.99058ZM36.8311 10.75H36.7311V10.85H36.8311V10.75ZM36.8311 2.23V2.13H36.7311V2.23H36.8311ZM41.5951 2.47L41.6398 2.38056L41.6398 2.38056L41.5951 2.47ZM42.4231 3.106L42.348 3.17202L42.3491 3.17327L42.4231 3.106ZM42.9751 3.994L42.8819 4.03036L42.8827 4.0323L42.9751 3.994ZM42.9631 6.094L42.8708 6.05538L42.8704 6.05648L42.9631 6.094ZM42.3871 6.97L42.4578 7.04071L42.4578 7.04071L42.3871 6.97ZM41.5111 7.51L41.4795 7.41513L41.3596 7.4551L41.426 7.5626L41.5111 7.51ZM43.5151 10.75V10.85H43.6945L43.6001 10.6974L43.5151 10.75ZM42.0031 10.75L41.9182 10.8029L41.9476 10.85H42.0031V10.75ZM40.1551 7.786L40.24 7.73309L40.2106 7.686H40.1551V7.786ZM38.1751 7.786V7.686H38.0751V7.786H38.1751ZM38.1751 10.75V10.85H38.2751V10.75H38.1751ZM38.1751 6.598H38.0751V6.698H38.1751V6.598ZM41.1871 6.382L41.2471 6.46203L41.2492 6.4604L41.1871 6.382ZM41.6431 5.794L41.7337 5.83629L41.7337 5.83629L41.6431 5.794ZM41.6191 4.21L41.5308 4.25706L41.5315 4.25831L41.6191 4.21ZM41.1151 3.634L41.172 3.55178L41.172 3.55178L41.1151 3.634ZM38.1751 3.418V3.318H38.0751V3.418H38.1751ZM36.9311 10.75V2.23H36.7311V10.75H36.9311ZM36.8311 2.33H40.5391V2.13H36.8311V2.33ZM40.5391 2.33C40.9087 2.33 41.2453 2.40689 41.5504 2.55944L41.6398 2.38056C41.3049 2.21311 40.9375 2.13 40.5391 2.13V2.33ZM41.5504 2.55944C41.859 2.71377 42.1247 2.91789 42.348 3.17201L42.4982 3.03999C42.2575 2.76611 41.9712 2.54623 41.6398 2.38056L41.5504 2.55944ZM42.3491 3.17327C42.581 3.42834 42.7584 3.7139 42.8819 4.03035L43.0683 3.95765C42.9357 3.6181 42.7452 3.31166 42.4971 3.03873L42.3491 3.17327ZM42.8827 4.0323C43.0139 4.34856 43.0791 4.67157 43.0791 5.002H43.2791C43.2791 4.64443 43.2083 4.29544 43.0675 3.9557L42.8827 4.0323ZM43.0791 5.002C43.0791 5.37314 43.0096 5.72398 42.8708 6.05539L43.0553 6.13261C43.2046 5.77602 43.2791 5.39886 43.2791 5.002H43.0791ZM42.8704 6.05648C42.7393 6.38048 42.5546 6.66109 42.3164 6.89929L42.4578 7.04071C42.7156 6.78291 42.9149 6.47952 43.0558 6.13152L42.8704 6.05648ZM42.3164 6.89929C42.0795 7.1362 41.8009 7.30799 41.4795 7.41513L41.5427 7.60487C41.8933 7.48801 42.1987 7.2998 42.4578 7.04071L42.3164 6.89929ZM41.426 7.5626L43.43 10.8026L43.6001 10.6974L41.5961 7.4574L41.426 7.5626ZM43.5151 10.65H42.0031V10.85H43.5151V10.65ZM42.088 10.6971L40.24 7.73309L40.0702 7.83891L41.9182 10.8029L42.088 10.6971ZM40.1551 7.686H38.1751V7.886H40.1551V7.686ZM38.0751 7.786V10.75H38.2751V7.786H38.0751ZM38.1751 10.65H36.8311V10.85H38.1751V10.65ZM38.1751 6.698H40.5271V6.498H38.1751V6.698ZM40.5271 6.698C40.796 6.698 41.0372 6.61944 41.2471 6.462L41.1271 6.302C40.953 6.43256 40.7542 6.498 40.5271 6.498V6.698ZM41.2492 6.4604C41.4543 6.29798 41.6157 6.08921 41.7337 5.83629L41.5525 5.75171C41.4465 5.97879 41.3039 6.16202 41.125 6.3036L41.2492 6.4604ZM41.7337 5.83629C41.8524 5.58192 41.9111 5.30332 41.9111 5.002H41.7111C41.7111 5.27668 41.6578 5.52608 41.5525 5.75171L41.7337 5.83629ZM41.9111 5.002C41.9111 4.69112 41.8437 4.41015 41.7067 4.16169L41.5315 4.25831C41.6505 4.47384 41.7111 4.72088 41.7111 5.002H41.9111ZM41.7073 4.16294C41.5724 3.90998 41.3941 3.70551 41.172 3.55178L41.0582 3.71622C41.2521 3.85049 41.4098 4.03002 41.5309 4.25706L41.7073 4.16294ZM41.172 3.55178C40.9489 3.3973 40.7093 3.318 40.4551 3.318V3.518C40.6649 3.518 40.8653 3.5827 41.0582 3.71622L41.172 3.55178ZM40.4551 3.318H38.1751V3.518H40.4551V3.318ZM38.0751 3.418V6.598H38.2751V3.418H38.0751ZM51.8087 9.562H51.9087V9.462H51.8087V9.562ZM51.8087 10.75V10.85H51.9087V10.75H51.8087ZM45.9647 10.75H45.8647V10.85H45.9647V10.75ZM45.9647 2.23V2.13H45.8647V2.23H45.9647ZM51.7007 2.23H51.8007V2.13H51.7007V2.23ZM51.7007 3.418V3.518H51.8007V3.418H51.7007ZM47.3087 3.418V3.318H47.2087V3.418H47.3087ZM47.3087 5.842H47.2087V5.942H47.3087V5.842ZM51.1127 5.842H51.2127V5.742H51.1127V5.842ZM51.1127 6.958V7.058H51.2127V6.958H51.1127ZM47.3087 6.958V6.858H47.2087V6.958H47.3087ZM47.3087 9.562H47.2087V9.662H47.3087V9.562ZM51.7087 9.562V10.75H51.9087V9.562H51.7087ZM51.8087 10.65H45.9647V10.85H51.8087V10.65ZM46.0647 10.75V2.23H45.8647V10.75H46.0647ZM45.9647 2.33H51.7007V2.13H45.9647V2.33ZM51.6007 2.23V3.418H51.8007V2.23H51.6007ZM51.7007 3.318H47.3087V3.518H51.7007V3.318ZM47.2087 3.418V5.842H47.4087V3.418H47.2087ZM47.3087 5.942H51.1127V5.742H47.3087V5.942ZM51.0127 5.842V6.958H51.2127V5.842H51.0127ZM51.1127 6.858H47.3087V7.058H51.1127V6.858ZM47.2087 6.958V9.562H47.4087V6.958H47.2087ZM47.3087 9.662H51.8087V9.462H47.3087V9.662ZM56.8552 2.23V2.13H56.7869L56.762 2.19354L56.8552 2.23ZM58.1272 2.23L58.2204 2.19377L58.1956 2.13H58.1272V2.23ZM61.4392 10.75V10.85H61.5853L61.5324 10.7138L61.4392 10.75ZM60.0232 10.75L59.9299 10.7862L59.9547 10.85H60.0232V10.75ZM59.1232 8.434L59.2164 8.39778L59.1916 8.334H59.1232V8.434ZM55.8352 8.434V8.334H55.7664L55.7418 8.3982L55.8352 8.434ZM54.9472 10.75V10.85H55.0159L55.0405 10.7858L54.9472 10.75ZM53.5192 10.75L53.426 10.7135L53.3726 10.85H53.5192V10.75ZM58.8592 7.438V7.538H59.0023L58.953 7.40358L58.8592 7.438ZM57.4912 3.706L57.585 3.67158L57.4928 3.41985L57.3977 3.67053L57.4912 3.706ZM56.0752 7.438L55.9817 7.40253L55.9303 7.538H56.0752V7.438ZM56.8552 2.33H58.1272V2.13H56.8552V2.33ZM58.034 2.26623L61.346 10.7862L61.5324 10.7138L58.2204 2.19377L58.034 2.26623ZM61.4392 10.65H60.0232V10.85H61.4392V10.65ZM60.1164 10.7138L59.2164 8.39778L59.0299 8.47022L59.9299 10.7862L60.1164 10.7138ZM59.1232 8.334H55.8352V8.534H59.1232V8.334ZM55.7418 8.3982L54.8538 10.7142L55.0405 10.7858L55.9285 8.4698L55.7418 8.3982ZM54.9472 10.65H53.5192V10.85H54.9472V10.65ZM53.6123 10.7865L56.9483 2.26646L56.762 2.19354L53.426 10.7135L53.6123 10.7865ZM58.953 7.40358L57.585 3.67158L57.3973 3.74042L58.7653 7.47242L58.953 7.40358ZM57.3977 3.67053L55.9817 7.40253L56.1687 7.47347L57.5847 3.74147L57.3977 3.67053ZM56.0752 7.538H58.8592V7.338H56.0752V7.538ZM70.8568 10.75H70.7568V10.85H70.8568V10.75ZM70.8568 4.678H70.9568L70.769 4.63019L70.8568 4.678ZM68.3488 9.286V9.386H68.4082L68.4366 9.3338L68.3488 9.286ZM67.5568 9.286L67.4691 9.33398L67.4975 9.386H67.5568V9.286ZM65.0368 4.678L65.1245 4.63002L64.9368 4.678H65.0368ZM65.0368 10.75V10.85H65.1368V10.75H65.0368ZM63.6928 10.75H63.5928V10.85H63.6928V10.75ZM63.6928 2.23V2.13H63.5928V2.23H63.6928ZM65.1328 2.23L65.2207 2.18238L65.1924 2.13H65.1328V2.23ZM67.9528 7.438L67.8649 7.48561L67.9528 7.64802L68.0407 7.48561L67.9528 7.438ZM70.7728 2.23V2.13H70.7132L70.6849 2.18238L70.7728 2.23ZM72.2128 2.23H72.3128V2.13H72.2128V2.23ZM72.2128 10.75V10.85H72.3128V10.75H72.2128ZM70.9568 10.75V4.678H70.7568V10.75H70.9568ZM70.769 4.63019L68.261 9.23819L68.4366 9.3338L70.9446 4.7258L70.769 4.63019ZM68.3488 9.186H67.5568V9.386H68.3488V9.186ZM67.6445 9.23802L65.1245 4.63002L64.9491 4.72598L67.4691 9.33398L67.6445 9.23802ZM64.9368 4.678V10.75H65.1368V4.678H64.9368ZM65.0368 10.65H63.6928V10.85H65.0368V10.65ZM63.7928 10.75V2.23H63.5928V10.75H63.7928ZM63.6928 2.33H65.1328V2.13H63.6928V2.33ZM65.0449 2.27761L67.8649 7.48561L68.0407 7.39038L65.2207 2.18238L65.0449 2.27761ZM68.0407 7.48561L70.8607 2.27761L70.6849 2.18238L67.8649 7.39038L68.0407 7.48561ZM70.7728 2.33H72.2128V2.13H70.7728V2.33ZM72.1128 2.23V10.75H72.3128V2.23H72.1128ZM72.2128 10.65H70.8568V10.85H72.2128V10.65Z" fill="black"/>
<path d="M0.96 12V3.48H2.304V12H0.96ZM4.88953 7.68C4.88953 7.16 4.98153 6.648 5.16553 6.144C5.34953 5.64 5.61753 5.184 5.96953 4.776C6.32953 4.368 6.76153 4.044 7.26553 3.804C7.77753 3.556 8.36153 3.432 9.01753 3.432C9.78553 3.432 10.4495 3.604 11.0095 3.948C11.5695 4.292 11.9855 4.74 12.2575 5.292L11.2015 6C11.0415 5.656 10.8375 5.388 10.5895 5.196C10.3495 4.996 10.0855 4.856 9.79753 4.776C9.51753 4.688 9.24153 4.644 8.96953 4.644C8.52153 4.644 8.12953 4.736 7.79353 4.92C7.45753 5.096 7.17353 5.332 6.94153 5.628C6.71753 5.924 6.54553 6.256 6.42553 6.624C6.31353 6.992 6.25753 7.36 6.25753 7.728C6.25753 8.28 6.37353 8.796 6.60553 9.276C6.84553 9.748 7.16953 10.132 7.57753 10.428C7.99353 10.716 8.46953 10.86 9.00553 10.86C9.27753 10.86 9.56153 10.812 9.85753 10.716C10.1535 10.62 10.4255 10.472 10.6735 10.272C10.9215 10.064 11.1215 9.792 11.2735 9.456L12.3895 10.092C12.2135 10.516 11.9375 10.876 11.5615 11.172C11.1935 11.468 10.7775 11.692 10.3135 11.844C9.85753 11.996 9.40553 12.072 8.95753 12.072C8.35753 12.072 7.80953 11.948 7.31353 11.7C6.81753 11.444 6.38953 11.108 6.02953 10.692C5.66953 10.268 5.38953 9.796 5.18953 9.276C4.98953 8.748 4.88953 8.216 4.88953 7.68ZM20.6767 10.812V12H14.8327V3.48H20.5687V4.668H16.1767V7.092H19.9807V8.208H16.1767V10.812H20.6767ZM26.888 7.68C26.888 7.16 26.98 6.648 27.164 6.144C27.348 5.64 27.616 5.184 27.968 4.776C28.328 4.368 28.76 4.044 29.264 3.804C29.776 3.556 30.36 3.432 31.016 3.432C31.784 3.432 32.448 3.604 33.008 3.948C33.568 4.292 33.984 4.74 34.256 5.292L33.2 6C33.04 5.656 32.836 5.388 32.588 5.196C32.348 4.996 32.084 4.856 31.796 4.776C31.516 4.688 31.24 4.644 30.968 4.644C30.52 4.644 30.128 4.736 29.792 4.92C29.456 5.096 29.172 5.332 28.94 5.628C28.716 5.924 28.544 6.256 28.424 6.624C28.312 6.992 28.256 7.36 28.256 7.728C28.256 8.28 28.372 8.796 28.604 9.276C28.844 9.748 29.168 10.132 29.576 10.428C29.992 10.716 30.468 10.86 31.004 10.86C31.276 10.86 31.56 10.812 31.856 10.716C32.152 10.62 32.424 10.472 32.672 10.272C32.92 10.064 33.12 9.792 33.272 9.456L34.388 10.092C34.212 10.516 33.936 10.876 33.56 11.172C33.192 11.468 32.776 11.692 32.312 11.844C31.856 11.996 31.404 12.072 30.956 12.072C30.356 12.072 29.808 11.948 29.312 11.7C28.816 11.444 28.388 11.108 28.028 10.692C27.668 10.268 27.388 9.796 27.188 9.276C26.988 8.748 26.888 8.216 26.888 7.68ZM36.8311 12V3.48H40.5391C40.9231 3.48 41.2751 3.56 41.5951 3.72C41.9151 3.88 42.1911 4.092 42.4231 4.356C42.6631 4.62 42.8471 4.916 42.9751 5.244C43.1111 5.572 43.1791 5.908 43.1791 6.252C43.1791 6.636 43.1071 7 42.9631 7.344C42.8271 7.68 42.6351 7.972 42.3871 8.22C42.1391 8.468 41.8471 8.648 41.5111 8.76L43.5151 12H42.0031L40.1551 9.036H38.1751V12H36.8311ZM38.1751 7.848H40.5271C40.7751 7.848 40.9951 7.776 41.1871 7.632C41.3791 7.48 41.5311 7.284 41.6431 7.044C41.7551 6.804 41.8111 6.54 41.8111 6.252C41.8111 5.956 41.7471 5.692 41.6191 5.46C41.4911 5.22 41.3231 5.028 41.1151 4.884C40.9071 4.74 40.6871 4.668 40.4551 4.668H38.1751V7.848ZM51.8087 10.812V12H45.9647V3.48H51.7007V4.668H47.3087V7.092H51.1127V8.208H47.3087V10.812H51.8087ZM56.8552 3.48H58.1272L61.4392 12H60.0232L59.1232 9.684H55.8352L54.9472 12H53.5192L56.8552 3.48ZM58.8592 8.688L57.4912 4.956L56.0752 8.688H58.8592ZM70.8568 12V5.928L68.3488 10.536H67.5568L65.0368 5.928V12H63.6928V3.48H65.1328L67.9528 8.688L70.7728 3.48H72.2128V12H70.8568Z" fill="white"/>
<path d="M0.96 12H0.86V12.1H0.96V12ZM0.96 3.48V3.38H0.86V3.48H0.96ZM2.304 3.48H2.404V3.38H2.304V3.48ZM2.304 12V12.1H2.404V12H2.304ZM1.06 12V3.48H0.86V12H1.06ZM0.96 3.58H2.304V3.38H0.96V3.58ZM2.204 3.48V12H2.404V3.48H2.204ZM2.304 11.9H0.96V12.1H2.304V11.9ZM5.16553 6.144L5.0716 6.10971L5.0716 6.10971L5.16553 6.144ZM5.96953 4.776L5.89454 4.70983L5.89382 4.71068L5.96953 4.776ZM7.26553 3.804L7.30853 3.89429L7.30912 3.894L7.26553 3.804ZM11.0095 3.948L10.9572 4.03321L10.9572 4.03321L11.0095 3.948ZM12.2575 5.292L12.3132 5.37506L12.3859 5.32632L12.3472 5.2478L12.2575 5.292ZM11.2015 6L11.1109 6.04217L11.1601 6.14814L11.2572 6.08306L11.2015 6ZM10.5895 5.196L10.5255 5.27287L10.5283 5.27507L10.5895 5.196ZM9.79753 4.776L9.76753 4.87145L9.77077 4.87235L9.79753 4.776ZM7.79353 4.92L7.83994 5.0086L7.84156 5.00771L7.79353 4.92ZM6.94153 5.628L6.86281 5.5663L6.86179 5.56766L6.94153 5.628ZM6.42553 6.624L6.33044 6.59299L6.32986 6.59488L6.42553 6.624ZM6.60553 9.276L6.51548 9.31953L6.51639 9.32132L6.60553 9.276ZM7.57753 10.428L7.51879 10.509L7.52061 10.5102L7.57753 10.428ZM9.85753 10.716L9.82668 10.6209L9.82668 10.6209L9.85753 10.716ZM10.6735 10.272L10.7363 10.3499L10.7378 10.3486L10.6735 10.272ZM11.2735 9.456L11.323 9.36912L11.2277 9.31476L11.1824 9.41478L11.2735 9.456ZM12.3895 10.092L12.4819 10.1303L12.5157 10.0488L12.439 10.0051L12.3895 10.092ZM11.5615 11.172L11.4997 11.0934L11.4989 11.0941L11.5615 11.172ZM10.3135 11.844L10.2824 11.749L10.2819 11.7491L10.3135 11.844ZM7.31353 11.7L7.26766 11.7889L7.26881 11.7894L7.31353 11.7ZM6.02953 10.692L5.9533 10.7567L5.95391 10.7574L6.02953 10.692ZM5.18953 9.276L5.09601 9.31142L5.0962 9.3119L5.18953 9.276ZM4.98953 7.68C4.98953 7.17207 5.07935 6.67166 5.25947 6.17829L5.0716 6.10971C4.88371 6.62434 4.78953 7.14793 4.78953 7.68H4.98953ZM5.25947 6.17829C5.4393 5.6857 5.70111 5.24021 6.04525 4.84132L5.89382 4.71068C5.53395 5.12779 5.25976 5.5943 5.0716 6.10971L5.25947 6.17829ZM6.04451 4.84216C6.39535 4.44454 6.81638 4.12864 7.30852 3.89429L7.22254 3.71371C6.70668 3.95936 6.26371 4.29145 5.89455 4.70984L6.04451 4.84216ZM7.30912 3.894C7.8056 3.65352 8.37432 3.532 9.01753 3.532V3.332C8.34874 3.332 7.74946 3.45848 7.22194 3.714L7.30912 3.894ZM9.01753 3.532C9.77021 3.532 10.4154 3.70041 10.9572 4.03321L11.0619 3.86279C10.4836 3.50759 9.80085 3.332 9.01753 3.332V3.532ZM10.9572 4.03321C11.5023 4.36804 11.9047 4.80228 12.1678 5.3362L12.3472 5.2478C12.0663 4.67772 11.6368 4.21596 11.0619 3.86279L10.9572 4.03321ZM12.2018 5.20894L11.1458 5.91694L11.2572 6.08306L12.3132 5.37506L12.2018 5.20894ZM11.2922 5.95783C11.1269 5.60235 10.9138 5.32054 10.6507 5.11693L10.5283 5.27507C10.7613 5.45546 10.9562 5.70964 11.1109 6.04217L11.2922 5.95783ZM10.6536 5.11918C10.4032 4.91052 10.1266 4.76361 9.8243 4.67965L9.77077 4.87235C10.0445 4.94838 10.2959 5.08148 10.5255 5.27282L10.6536 5.11918ZM9.82751 4.6806C9.53858 4.58979 9.25247 4.544 8.96953 4.544V4.744C9.23059 4.744 9.49649 4.78621 9.76755 4.8714L9.82751 4.6806ZM8.96953 4.544C8.5076 4.544 8.09854 4.63896 7.7455 4.83229L7.84156 5.00771C8.16052 4.83304 8.53546 4.744 8.96953 4.744V4.544ZM7.74713 4.83142C7.39869 5.01393 7.10364 5.25906 6.86283 5.56631L7.02024 5.68969C7.24342 5.40494 7.51637 5.17807 7.83993 5.00858L7.74713 4.83142ZM6.86179 5.56766C6.6308 5.87289 6.45375 6.21489 6.33046 6.593L6.5206 6.655C6.63731 6.29711 6.80426 5.97511 7.02127 5.68834L6.86179 5.56766ZM6.32986 6.59488C6.21512 6.97189 6.15753 7.34969 6.15753 7.728H6.35753C6.35753 7.37031 6.41194 7.01211 6.5212 6.65312L6.32986 6.59488ZM6.15753 7.728C6.15753 8.29452 6.2767 8.82546 6.5155 9.31952L6.69557 9.23248C6.47036 8.76654 6.35753 8.26548 6.35753 7.728H6.15753ZM6.51639 9.32132C6.7632 9.8067 7.09734 10.2032 7.51881 10.5089L7.63625 10.3471C7.24172 10.0608 6.92787 9.6893 6.69467 9.23068L6.51639 9.32132ZM7.52061 10.5102C7.95435 10.8105 8.45047 10.96 9.00553 10.96V10.76C8.4886 10.76 8.03271 10.6215 7.63445 10.3458L7.52061 10.5102ZM9.00553 10.96C9.28939 10.96 9.58383 10.9099 9.88838 10.8111L9.82668 10.6209C9.53924 10.7141 9.26567 10.76 9.00553 10.76V10.96ZM9.88838 10.8111C10.1963 10.7113 10.479 10.5573 10.7363 10.3498L10.6108 10.1942C10.372 10.3867 10.1108 10.5287 9.82668 10.6209L9.88838 10.8111ZM10.7378 10.3486C10.9988 10.1297 11.2073 9.84497 11.3646 9.49722L11.1824 9.41478C11.0357 9.73903 10.8443 9.99828 10.6093 10.1954L10.7378 10.3486ZM11.224 9.54288L12.34 10.1789L12.439 10.0051L11.323 9.36912L11.224 9.54288ZM12.2972 10.0537C12.128 10.4612 11.8628 10.8075 11.4997 11.0934L11.6234 11.2506C12.0122 10.9445 12.299 10.5708 12.4819 10.1303L12.2972 10.0537ZM11.4989 11.0941C11.1406 11.3823 10.7353 11.6006 10.2824 11.749L10.3447 11.939C10.8197 11.7834 11.2465 11.5537 11.6242 11.2499L11.4989 11.0941ZM10.2819 11.7491C9.83536 11.898 9.39403 11.972 8.95753 11.972V12.172C9.41704 12.172 9.8797 12.094 10.3452 11.9389L10.2819 11.7491ZM8.95753 11.972C8.37176 11.972 7.83925 11.8511 7.35825 11.6106L7.26881 11.7894C7.77981 12.0449 8.34331 12.172 8.95753 12.172V11.972ZM7.3594 11.6111C6.87455 11.3609 6.45669 11.0328 6.10515 10.6266L5.95391 10.7574C6.32237 11.1832 6.76052 11.5271 7.26767 11.7889L7.3594 11.6111ZM6.10576 10.6273C5.75306 10.2119 5.47883 9.74962 5.28287 9.2401L5.0962 9.3119C5.30023 9.84238 5.58601 10.3241 5.9533 10.7567L6.10576 10.6273ZM5.28305 9.24058C5.0871 8.72328 4.98953 8.20326 4.98953 7.68H4.78953C4.78953 8.22874 4.89196 8.77272 5.09602 9.31142L5.28305 9.24058ZM20.6767 10.812H20.7767V10.712H20.6767V10.812ZM20.6767 12V12.1H20.7767V12H20.6767ZM14.8327 12H14.7327V12.1H14.8327V12ZM14.8327 3.48V3.38H14.7327V3.48H14.8327ZM20.5687 3.48H20.6687V3.38H20.5687V3.48ZM20.5687 4.668V4.768H20.6687V4.668H20.5687ZM16.1767 4.668V4.568H16.0767V4.668H16.1767ZM16.1767 7.092H16.0767V7.192H16.1767V7.092ZM19.9807 7.092H20.0807V6.992H19.9807V7.092ZM19.9807 8.208V8.308H20.0807V8.208H19.9807ZM16.1767 8.208V8.108H16.0767V8.208H16.1767ZM16.1767 10.812H16.0767V10.912H16.1767V10.812ZM20.5767 10.812V12H20.7767V10.812H20.5767ZM20.6767 11.9H14.8327V12.1H20.6767V11.9ZM14.9327 12V3.48H14.7327V12H14.9327ZM14.8327 3.58H20.5687V3.38H14.8327V3.58ZM20.4687 3.48V4.668H20.6687V3.48H20.4687ZM20.5687 4.568H16.1767V4.768H20.5687V4.568ZM16.0767 4.668V7.092H16.2767V4.668H16.0767ZM16.1767 7.192H19.9807V6.992H16.1767V7.192ZM19.8807 7.092V8.208H20.0807V7.092H19.8807ZM19.9807 8.108H16.1767V8.308H19.9807V8.108ZM16.0767 8.208V10.812H16.2767V8.208H16.0767ZM16.1767 10.912H20.6767V10.712H16.1767V10.912ZM27.164 6.144L27.07 6.10971L27.07 6.10971L27.164 6.144ZM27.968 4.776L27.893 4.70983L27.8923 4.71068L27.968 4.776ZM29.264 3.804L29.307 3.89429L29.3076 3.894L29.264 3.804ZM33.008 3.948L32.9556 4.03321L32.9556 4.03321L33.008 3.948ZM34.256 5.292L34.3117 5.37506L34.3844 5.32632L34.3457 5.2478L34.256 5.292ZM33.2 6L33.1093 6.04217L33.1586 6.14814L33.2557 6.08306L33.2 6ZM32.588 5.196L32.5239 5.27287L32.5268 5.27507L32.588 5.196ZM31.796 4.776L31.766 4.87145L31.7692 4.87235L31.796 4.776ZM29.792 4.92L29.8384 5.0086L29.84 5.00771L29.792 4.92ZM28.94 5.628L28.8613 5.5663L28.8602 5.56766L28.94 5.628ZM28.424 6.624L28.3289 6.59299L28.3283 6.59488L28.424 6.624ZM28.604 9.276L28.5139 9.31953L28.5148 9.32132L28.604 9.276ZM29.576 10.428L29.5172 10.509L29.519 10.5102L29.576 10.428ZM31.856 10.716L31.8251 10.6209L31.8251 10.6209L31.856 10.716ZM32.672 10.272L32.7348 10.3499L32.7362 10.3486L32.672 10.272ZM33.272 9.456L33.3215 9.36912L33.2261 9.31476L33.1809 9.41478L33.272 9.456ZM34.388 10.092L34.4803 10.1303L34.5142 10.0488L34.4375 10.0051L34.388 10.092ZM33.56 11.172L33.4981 11.0934L33.4973 11.0941L33.56 11.172ZM32.312 11.844L32.2808 11.749L32.2803 11.7491L32.312 11.844ZM29.312 11.7L29.2661 11.7889L29.2672 11.7894L29.312 11.7ZM28.028 10.692L27.9517 10.7567L27.9524 10.7574L28.028 10.692ZM27.188 9.276L27.0945 9.31142L27.0946 9.3119L27.188 9.276ZM26.988 7.68C26.988 7.17207 27.0778 6.67166 27.2579 6.17829L27.07 6.10971C26.8822 6.62434 26.788 7.14793 26.788 7.68H26.988ZM27.2579 6.17829C27.4377 5.6857 27.6995 5.24021 28.0437 4.84132L27.8923 4.71068C27.5324 5.12779 27.2582 5.5943 27.07 6.10971L27.2579 6.17829ZM28.043 4.84216C28.3938 4.44454 28.8148 4.12864 29.307 3.89429L29.221 3.71371C28.7051 3.95936 28.2621 4.29145 27.893 4.70984L28.043 4.84216ZM29.3076 3.894C29.804 3.65352 30.3728 3.532 31.016 3.532V3.332C30.3472 3.332 29.7479 3.45848 29.2204 3.714L29.3076 3.894ZM31.016 3.532C31.7687 3.532 32.4139 3.70041 32.9556 4.03321L33.0603 3.86279C32.4821 3.50759 31.7993 3.332 31.016 3.332V3.532ZM32.9556 4.03321C33.5007 4.36804 33.9032 4.80228 34.1663 5.3362L34.3457 5.2478C34.0648 4.67772 33.6352 4.21596 33.0603 3.86279L32.9556 4.03321ZM34.2003 5.20894L33.1443 5.91694L33.2557 6.08306L34.3117 5.37506L34.2003 5.20894ZM33.2906 5.95783C33.1253 5.60235 32.9122 5.32054 32.6492 5.11693L32.5268 5.27507C32.7597 5.45546 32.9546 5.70964 33.1093 6.04217L33.2906 5.95783ZM32.652 5.11918C32.4016 4.91052 32.125 4.76361 31.8227 4.67965L31.7692 4.87235C32.0429 4.94838 32.2943 5.08148 32.524 5.27282L32.652 5.11918ZM31.826 4.6806C31.537 4.58979 31.2509 4.544 30.968 4.544V4.744C31.229 4.744 31.4949 4.78621 31.766 4.8714L31.826 4.6806ZM30.968 4.544C30.506 4.544 30.097 4.63896 29.7439 4.83229L29.84 5.00771C30.159 4.83304 30.5339 4.744 30.968 4.744V4.544ZM29.7456 4.83142C29.3971 5.01393 29.1021 5.25906 28.8613 5.56631L29.0187 5.68969C29.2419 5.40494 29.5148 5.17807 29.8384 5.00858L29.7456 4.83142ZM28.8602 5.56766C28.6292 5.87289 28.4522 6.21489 28.3289 6.593L28.519 6.655C28.6357 6.29711 28.8027 5.97511 29.0197 5.68834L28.8602 5.56766ZM28.3283 6.59488C28.2136 6.97189 28.156 7.34969 28.156 7.728H28.356C28.356 7.37031 28.4104 7.01211 28.5196 6.65312L28.3283 6.59488ZM28.156 7.728C28.156 8.29452 28.2751 8.82546 28.5139 9.31952L28.694 9.23248C28.4688 8.76654 28.356 8.26548 28.356 7.728H28.156ZM28.5148 9.32132C28.7616 9.8067 29.0958 10.2032 29.5172 10.5089L29.6347 10.3471C29.2402 10.0608 28.9263 9.6893 28.6931 9.23068L28.5148 9.32132ZM29.519 10.5102C29.9528 10.8105 30.4489 10.96 31.004 10.96V10.76C30.487 10.76 30.0311 10.6215 29.6329 10.3458L29.519 10.5102ZM31.004 10.96C31.2878 10.96 31.5823 10.9099 31.8868 10.8111L31.8251 10.6209C31.5377 10.7141 31.2641 10.76 31.004 10.76V10.96ZM31.8868 10.8111C32.1947 10.7113 32.4775 10.5573 32.7347 10.3498L32.6092 10.1942C32.3705 10.3867 32.1092 10.5287 31.8251 10.6209L31.8868 10.8111ZM32.7362 10.3486C32.9972 10.1297 33.2058 9.84497 33.3631 9.49722L33.1809 9.41478C33.0342 9.73903 32.8427 9.99828 32.6077 10.1954L32.7362 10.3486ZM33.2225 9.54288L34.3385 10.1789L34.4375 10.0051L33.3215 9.36912L33.2225 9.54288ZM34.2956 10.0537C34.1265 10.4612 33.8613 10.8075 33.4981 11.0934L33.6218 11.2506C34.0107 10.9445 34.2975 10.5708 34.4803 10.1303L34.2956 10.0537ZM33.4973 11.0941C33.139 11.3823 32.7338 11.6006 32.2808 11.749L32.3431 11.939C32.8182 11.7834 33.2449 11.5537 33.6226 11.2499L33.4973 11.0941ZM32.2803 11.7491C31.8338 11.898 31.3925 11.972 30.956 11.972V12.172C31.4155 12.172 31.8781 12.094 32.3436 11.9389L32.2803 11.7491ZM30.956 11.972C30.3702 11.972 29.8377 11.8511 29.3567 11.6106L29.2672 11.7894C29.7782 12.0449 30.3417 12.172 30.956 12.172V11.972ZM29.3578 11.6111C28.873 11.3609 28.4551 11.0328 28.1036 10.6266L27.9524 10.7574C28.3208 11.1832 28.759 11.5271 29.2661 11.7889L29.3578 11.6111ZM28.1042 10.6273C27.7515 10.2119 27.4773 9.74962 27.2813 9.2401L27.0946 9.3119C27.2987 9.84238 27.5844 10.3241 27.9517 10.7567L28.1042 10.6273ZM27.2815 9.24058C27.0855 8.72328 26.988 8.20326 26.988 7.68H26.788C26.788 8.22874 26.8904 8.77272 27.0945 9.31142L27.2815 9.24058ZM36.8311 12H36.7311V12.1H36.8311V12ZM36.8311 3.48V3.38H36.7311V3.48H36.8311ZM41.5951 3.72L41.6398 3.63056L41.6398 3.63056L41.5951 3.72ZM42.4231 4.356L42.348 4.42202L42.3491 4.42327L42.4231 4.356ZM42.9751 5.244L42.8819 5.28036L42.8827 5.2823L42.9751 5.244ZM42.9631 7.344L42.8708 7.30538L42.8704 7.30648L42.9631 7.344ZM42.3871 8.22L42.4578 8.29071L42.4578 8.29071L42.3871 8.22ZM41.5111 8.76L41.4795 8.66513L41.3596 8.7051L41.426 8.8126L41.5111 8.76ZM43.5151 12V12.1H43.6945L43.6001 11.9474L43.5151 12ZM42.0031 12L41.9182 12.0529L41.9476 12.1H42.0031V12ZM40.1551 9.036L40.24 8.98309L40.2106 8.936H40.1551V9.036ZM38.1751 9.036V8.936H38.0751V9.036H38.1751ZM38.1751 12V12.1H38.2751V12H38.1751ZM38.1751 7.848H38.0751V7.948H38.1751V7.848ZM41.1871 7.632L41.2471 7.71203L41.2492 7.7104L41.1871 7.632ZM41.6431 7.044L41.7337 7.08629L41.7337 7.08629L41.6431 7.044ZM41.6191 5.46L41.5308 5.50706L41.5315 5.50831L41.6191 5.46ZM41.1151 4.884L41.172 4.80178L41.172 4.80178L41.1151 4.884ZM38.1751 4.668V4.568H38.0751V4.668H38.1751ZM36.9311 12V3.48H36.7311V12H36.9311ZM36.8311 3.58H40.5391V3.38H36.8311V3.58ZM40.5391 3.58C40.9087 3.58 41.2453 3.65689 41.5504 3.80944L41.6398 3.63056C41.3049 3.46311 40.9375 3.38 40.5391 3.38V3.58ZM41.5504 3.80944C41.859 3.96377 42.1247 4.16789 42.348 4.42201L42.4982 4.28999C42.2575 4.01611 41.9712 3.79623 41.6398 3.63056L41.5504 3.80944ZM42.3491 4.42327C42.581 4.67834 42.7584 4.9639 42.8819 5.28035L43.0683 5.20765C42.9357 4.8681 42.7452 4.56166 42.4971 4.28873L42.3491 4.42327ZM42.8827 5.2823C43.0139 5.59856 43.0791 5.92157 43.0791 6.252H43.2791C43.2791 5.89443 43.2083 5.54544 43.0675 5.2057L42.8827 5.2823ZM43.0791 6.252C43.0791 6.62314 43.0096 6.97398 42.8708 7.30539L43.0553 7.38261C43.2046 7.02602 43.2791 6.64886 43.2791 6.252H43.0791ZM42.8704 7.30648C42.7393 7.63048 42.5546 7.91109 42.3164 8.14929L42.4578 8.29071C42.7156 8.03291 42.9149 7.72952 43.0558 7.38152L42.8704 7.30648ZM42.3164 8.14929C42.0795 8.3862 41.8009 8.55799 41.4795 8.66513L41.5427 8.85487C41.8933 8.73801 42.1987 8.5498 42.4578 8.29071L42.3164 8.14929ZM41.426 8.8126L43.43 12.0526L43.6001 11.9474L41.5961 8.7074L41.426 8.8126ZM43.5151 11.9H42.0031V12.1H43.5151V11.9ZM42.088 11.9471L40.24 8.98309L40.0702 9.08891L41.9182 12.0529L42.088 11.9471ZM40.1551 8.936H38.1751V9.136H40.1551V8.936ZM38.0751 9.036V12H38.2751V9.036H38.0751ZM38.1751 11.9H36.8311V12.1H38.1751V11.9ZM38.1751 7.948H40.5271V7.748H38.1751V7.948ZM40.5271 7.948C40.796 7.948 41.0372 7.86944 41.2471 7.712L41.1271 7.552C40.953 7.68256 40.7542 7.748 40.5271 7.748V7.948ZM41.2492 7.7104C41.4543 7.54798 41.6157 7.33921 41.7337 7.08629L41.5525 7.00171C41.4465 7.22879 41.3039 7.41202 41.125 7.5536L41.2492 7.7104ZM41.7337 7.08629C41.8524 6.83192 41.9111 6.55332 41.9111 6.252H41.7111C41.7111 6.52668 41.6578 6.77608 41.5525 7.00171L41.7337 7.08629ZM41.9111 6.252C41.9111 5.94112 41.8437 5.66015 41.7067 5.41169L41.5315 5.50831C41.6505 5.72384 41.7111 5.97088 41.7111 6.252H41.9111ZM41.7073 5.41294C41.5724 5.15998 41.3941 4.95551 41.172 4.80178L41.0582 4.96622C41.2521 5.10049 41.4098 5.28002 41.5309 5.50706L41.7073 5.41294ZM41.172 4.80178C40.9489 4.6473 40.7093 4.568 40.4551 4.568V4.768C40.6649 4.768 40.8653 4.8327 41.0582 4.96622L41.172 4.80178ZM40.4551 4.568H38.1751V4.768H40.4551V4.568ZM38.0751 4.668V7.848H38.2751V4.668H38.0751ZM51.8087 10.812H51.9087V10.712H51.8087V10.812ZM51.8087 12V12.1H51.9087V12H51.8087ZM45.9647 12H45.8647V12.1H45.9647V12ZM45.9647 3.48V3.38H45.8647V3.48H45.9647ZM51.7007 3.48H51.8007V3.38H51.7007V3.48ZM51.7007 4.668V4.768H51.8007V4.668H51.7007ZM47.3087 4.668V4.568H47.2087V4.668H47.3087ZM47.3087 7.092H47.2087V7.192H47.3087V7.092ZM51.1127 7.092H51.2127V6.992H51.1127V7.092ZM51.1127 8.208V8.308H51.2127V8.208H51.1127ZM47.3087 8.208V8.108H47.2087V8.208H47.3087ZM47.3087 10.812H47.2087V10.912H47.3087V10.812ZM51.7087 10.812V12H51.9087V10.812H51.7087ZM51.8087 11.9H45.9647V12.1H51.8087V11.9ZM46.0647 12V3.48H45.8647V12H46.0647ZM45.9647 3.58H51.7007V3.38H45.9647V3.58ZM51.6007 3.48V4.668H51.8007V3.48H51.6007ZM51.7007 4.568H47.3087V4.768H51.7007V4.568ZM47.2087 4.668V7.092H47.4087V4.668H47.2087ZM47.3087 7.192H51.1127V6.992H47.3087V7.192ZM51.0127 7.092V8.208H51.2127V7.092H51.0127ZM51.1127 8.108H47.3087V8.308H51.1127V8.108ZM47.2087 8.208V10.812H47.4087V8.208H47.2087ZM47.3087 10.912H51.8087V10.712H47.3087V10.912ZM56.8552 3.48V3.38H56.7869L56.762 3.44354L56.8552 3.48ZM58.1272 3.48L58.2204 3.44377L58.1956 3.38H58.1272V3.48ZM61.4392 12V12.1H61.5853L61.5324 11.9638L61.4392 12ZM60.0232 12L59.9299 12.0362L59.9547 12.1H60.0232V12ZM59.1232 9.684L59.2164 9.64778L59.1916 9.584H59.1232V9.684ZM55.8352 9.684V9.584H55.7664L55.7418 9.6482L55.8352 9.684ZM54.9472 12V12.1H55.0159L55.0405 12.0358L54.9472 12ZM53.5192 12L53.426 11.9635L53.3726 12.1H53.5192V12ZM58.8592 8.688V8.788H59.0023L58.953 8.65358L58.8592 8.688ZM57.4912 4.956L57.585 4.92158L57.4928 4.66985L57.3977 4.92053L57.4912 4.956ZM56.0752 8.688L55.9817 8.65253L55.9303 8.788H56.0752V8.688ZM56.8552 3.58H58.1272V3.38H56.8552V3.58ZM58.034 3.51623L61.346 12.0362L61.5324 11.9638L58.2204 3.44377L58.034 3.51623ZM61.4392 11.9H60.0232V12.1H61.4392V11.9ZM60.1164 11.9638L59.2164 9.64778L59.0299 9.72022L59.9299 12.0362L60.1164 11.9638ZM59.1232 9.584H55.8352V9.784H59.1232V9.584ZM55.7418 9.6482L54.8538 11.9642L55.0405 12.0358L55.9285 9.7198L55.7418 9.6482ZM54.9472 11.9H53.5192V12.1H54.9472V11.9ZM53.6123 12.0365L56.9483 3.51646L56.762 3.44354L53.426 11.9635L53.6123 12.0365ZM58.953 8.65358L57.585 4.92158L57.3973 4.99042L58.7653 8.72242L58.953 8.65358ZM57.3977 4.92053L55.9817 8.65253L56.1687 8.72347L57.5847 4.99147L57.3977 4.92053ZM56.0752 8.788H58.8592V8.588H56.0752V8.788ZM70.8568 12H70.7568V12.1H70.8568V12ZM70.8568 5.928H70.9568L70.769 5.88019L70.8568 5.928ZM68.3488 10.536V10.636H68.4082L68.4366 10.5838L68.3488 10.536ZM67.5568 10.536L67.4691 10.584L67.4975 10.636H67.5568V10.536ZM65.0368 5.928L65.1245 5.88002L64.9368 5.928H65.0368ZM65.0368 12V12.1H65.1368V12H65.0368ZM63.6928 12H63.5928V12.1H63.6928V12ZM63.6928 3.48V3.38H63.5928V3.48H63.6928ZM65.1328 3.48L65.2207 3.43238L65.1924 3.38H65.1328V3.48ZM67.9528 8.688L67.8649 8.73561L67.9528 8.89802L68.0407 8.73561L67.9528 8.688ZM70.7728 3.48V3.38H70.7132L70.6849 3.43238L70.7728 3.48ZM72.2128 3.48H72.3128V3.38H72.2128V3.48ZM72.2128 12V12.1H72.3128V12H72.2128ZM70.9568 12V5.928H70.7568V12H70.9568ZM70.769 5.88019L68.261 10.4882L68.4366 10.5838L70.9446 5.9758L70.769 5.88019ZM68.3488 10.436H67.5568V10.636H68.3488V10.436ZM67.6445 10.488L65.1245 5.88002L64.9491 5.97598L67.4691 10.584L67.6445 10.488ZM64.9368 5.928V12H65.1368V5.928H64.9368ZM65.0368 11.9H63.6928V12.1H65.0368V11.9ZM63.7928 12V3.48H63.5928V12H63.7928ZM63.6928 3.58H65.1328V3.38H63.6928V3.58ZM65.0449 3.52761L67.8649 8.73561L68.0407 8.64038L65.2207 3.43238L65.0449 3.52761ZM68.0407 8.73561L70.8607 3.52761L70.6849 3.43238L67.8649 8.64038L68.0407 8.73561ZM70.7728 3.58H72.2128V3.38H70.7728V3.58ZM72.1128 3.48V12H72.3128V3.48H72.1128ZM72.2128 11.9H70.8568V12.1H72.2128V11.9Z" fill="black"/>
<rect x="12.2861" y="4.078" width="0.11" height="1.25" transform="rotate(0.111473 12.2861 4.078)" fill="black"/>
<rect x="34.29" y="4.078" width="0.11" height="1.25" transform="rotate(0.111473 34.29 4.078)" fill="black"/>
<rect x="12.42" y="8.8" width="0.11" height="1.25" transform="rotate(0.111473 12.42 8.8)" fill="black"/>
<rect x="34.42" y="8.8" width="0.11" height="1.25" transform="rotate(0.111473 34.42 8.8)" fill="black"/>
<rect x="43.59" y="10.85" width="0.11" height="1.25" transform="rotate(0.111473 43.59 10.85)" fill="black"/>
<rect x="61.48" y="10.85" width="0.11" height="1.25" transform="rotate(0.111473 61.48 10.85)" fill="black"/>
<rect x="53.37" y="10.85" width="0.11" height="1.25" transform="rotate(0.111473 53.37 10.85)" fill="black"/>
<rect x="11.2" y="8.2" width="0.11" height="1.25" transform="rotate(0.111473 11.2 8.2)" fill="black"/>
<rect x="33.2" y="8.2" width="0.11" height="1.25" transform="rotate(0.111473 33.2 8.2)" fill="black"/>
</svg>
