<?xml version="1.0" standalone="no"?>
<!DOCTYPE svg PUBLIC "-//W3C//DTD SVG 20010904//EN"
 "http://www.w3.org/TR/2001/REC-SVG-20010904/DTD/svg10.dtd">
<svg version="1.0" xmlns="http://www.w3.org/2000/svg"
 width="1782.000000pt" height="1602.000000pt" viewBox="0 0 1782.000000 1602.000000"
 preserveAspectRatio="xMidYMid meet">

<g transform="translate(0.000000,1602.000000) scale(0.100000,-0.100000)"
fill="#000000" stroke="none">
<path d="M7365 15716 c-10 -7 -19 -30 -22 -51 -2 -22 -5 -41 -7 -42 -4 -4
-1728 -352 -4201 -847 -511 -103 -940 -191 -953 -196 l-23 -10 3 -263 c3 -246
4 -264 25 -303 28 -53 79 -102 128 -125 38 -18 94 -19 1300 -19 1198 0 1262 1
1300 19 59 26 101 66 125 117 l23 46 17 -39 c20 -44 57 -83 109 -116 l36 -22
1058 -3 1057 -2 0 -450 0 -450 -1437 -2 -1438 -3 0 -1680 0 -1680 1438 -3
c946 -1 1437 -5 1437 -12 0 -6 1 -78 1 -161 0 -140 -1 -153 -21 -174 -33 -35
-40 -80 -40 -267 0 -97 -3 -179 -7 -181 -5 -3 -63 2 -131 10 -162 18 -364 70
-504 128 -62 26 -123 49 -135 52 l-23 5 0 -316 c0 -352 -4 -337 69 -292 72 46
306 159 407 197 93 35 210 68 292 83 l32 6 0 -255 0 -255 -2052 -2 c-2051 -3
-2053 -3 -2088 -24 -19 -11 -45 -38 -57 -60 l-23 -39 0 -2105 0 -2105 -25 -78
c-31 -96 -31 -97 0 -97 24 0 25 -2 25 -74 l0 -75 42 -3 c34 -2 44 -7 46 -23 8
-41 32 -55 95 -55 l60 0 -6 -42 c-4 -24 -14 -90 -23 -148 -20 -133 -15 -538 9
-670 31 -165 58 -286 83 -365 30 -92 74 -195 83 -195 4 0 8 -12 9 -27 5 -57
172 -338 290 -487 79 -101 251 -274 357 -360 266 -217 613 -386 940 -458 50
-11 -333 -14 -2390 -18 -2169 -4 -2450 -7 -2450 -20 0 -13 974 -15 8710 -15
8462 0 8710 1 8713 18 4 18 -57 19 -2051 15 -1130 -1 -2053 0 -2051 4 3 4 26
10 52 13 50 7 117 22 142 32 8 3 62 23 120 44 217 78 291 115 464 227 428 280
755 740 880 1241 47 188 61 302 61 521 0 220 -11 321 -52 495 -118 504 -410
934 -850 1250 -69 50 -80 61 -72 77 14 25 22 23 88 -22 241 -163 488 -426 637
-676 191 -321 286 -645 310 -1058 l7 -120 105 -118 c60 -68 112 -118 122 -118
15 0 20 12 26 78 13 126 7 388 -10 522 -51 386 -188 752 -399 1065 -138 204
-361 439 -554 580 -163 120 -202 148 -227 162 -52 29 -246 122 -296 141 -386
149 -587 187 -965 186 -202 0 -261 -4 -374 -23 -157 -27 -337 -74 -469 -124
-50 -19 -94 -32 -96 -28 -13 21 -156 376 -156 387 0 12 203 14 1239 14 1361 0
1266 -5 1259 61 -3 31 -13 41 -50 53 -17 5 -18 43 -18 606 l0 600 50 0 50 0 0
165 0 165 -1002 -2 -1003 -3 0 -160 0 -160 53 -3 52 -3 -2 -602 -3 -602 -332
-2 c-267 -2 -335 0 -346 11 -21 21 -110 244 -104 260 5 12 35 15 169 13 177
-1 237 8 326 51 59 29 109 79 144 144 21 40 23 54 21 188 -1 159 -10 198 -65
283 l-31 48 27 55 c41 84 55 138 67 264 10 104 9 179 -7 425 l-5 80 29 -78
c39 -103 75 -146 123 -147 82 -1 65 107 -49 303 l-50 87 44 0 c47 0 113 22
126 43 16 24 8 68 -17 92 -32 33 -83 33 -152 1 l-52 -24 -6 56 c-42 405 -170
1020 -319 1537 -73 255 -106 346 -181 502 -182 381 -439 715 -723 943 l-92 73
31 34 c35 40 32 46 -40 96 -25 17 -79 55 -119 85 -57 42 -78 53 -97 48 -19 -5
-29 0 -48 26 -43 58 -43 75 -1 113 21 19 46 35 55 35 24 0 48 36 55 81 5 32
16 44 75 84 88 60 150 129 191 213 30 60 33 75 33 157 0 78 -4 97 -27 141 -59
112 -131 179 -508 475 -85 67 -173 137 -195 154 -76 61 -230 157 -323 202
-293 140 -503 96 -579 -122 -25 -71 -22 -183 7 -259 l23 -60 -23 -67 -24 -68
-125 -41 c-155 -51 -322 -130 -350 -166 -44 -56 -14 -101 84 -129 63 -19 250
-45 321 -45 l51 0 -4 -72 c-5 -95 -29 -215 -55 -286 -15 -43 -36 -71 -79 -112
-64 -60 -85 -102 -71 -141 12 -29 54 -72 98 -100 36 -22 34 -17 53 -167 15
-121 55 -198 150 -293 93 -92 179 -138 318 -169 107 -23 243 -68 243 -79 0 -4
-14 -20 -31 -37 -17 -16 -35 -36 -39 -45 -6 -11 10 -72 51 -190 33 -95 64
-176 68 -179 5 -3 5 -30 0 -60 -4 -30 -13 -93 -19 -140 -6 -47 -15 -110 -20
-140 -5 -30 -12 -89 -15 -130 -15 -227 -24 -400 -25 -520 -1 -166 -33 -430
-53 -445 -8 -6 -64 -19 -123 -28 -183 -30 -386 -67 -454 -82 -36 -8 -126 -24
-200 -36 -74 -11 -163 -27 -198 -35 -57 -13 -80 -12 -230 7 -237 29 -420 56
-536 80 -121 25 -248 29 -293 10 -43 -18 -69 -75 -82 -181 -6 -47 -16 -113
-22 -147 -9 -51 -8 -67 4 -92 10 -19 13 -45 10 -75 -9 -76 28 -112 152 -146
38 -11 61 -23 63 -33 2 -9 -37 -87 -86 -174 -49 -87 -151 -268 -227 -403 -76
-135 -158 -281 -183 -325 -25 -44 -64 -114 -87 -155 -23 -41 -53 -95 -67 -120
-14 -25 -36 -63 -48 -85 -76 -137 -133 -235 -136 -235 -2 0 -4 529 -4 1175 l0
1175 49 -24 c141 -72 317 -43 420 69 55 60 74 106 74 181 1 114 -68 211 -188
265 -77 35 -210 33 -289 -4 -32 -15 -60 -27 -62 -27 -2 0 -4 57 -4 126 l0 126
-30 28 -30 28 0 2296 0 2296 1035 0 c791 0 1041 3 1062 12 91 40 135 92 164
191 17 61 18 61 19 22 1 -56 30 -114 80 -158 79 -72 -23 -67 1367 -67 1244 0
1259 1 1303 21 55 25 95 62 123 114 21 37 22 58 27 310 3 149 5 271 4 273 -1
2 -784 160 -3504 707 -613 123 -1239 249 -1389 279 -151 31 -279 56 -283 56
-4 0 -8 20 -8 45 0 51 -24 74 -55 51z m-180 -175 c-10 -10 -257 -126 -505
-238 -224 -100 -228 -102 -349 -159 -62 -30 -115 -54 -118 -54 -2 0 -28 -11
-56 -24 -148 -69 -546 -250 -575 -263 -34 -14 -128 -57 -217 -98 -125 -58
-213 -99 -254 -116 -42 -19 -88 -19 -1367 -19 -843 0 -1325 4 -1329 10 -10 16
24 25 300 78 366 72 1087 217 1575 317 228 47 433 88 455 91 22 3 204 39 405
80 432 89 891 181 940 189 36 6 649 132 895 184 146 30 216 38 200 22z m760
-57 c463 -95 795 -161 835 -168 40 -6 368 -72 695 -141 121 -25 301 -61 400
-80 99 -18 358 -70 575 -115 364 -74 712 -144 785 -156 17 -3 225 -46 463 -95
238 -49 474 -96 524 -105 105 -18 142 -30 133 -44 -4 -6 -483 -10 -1355 -10
l-1348 0 -54 24 c-29 13 -102 47 -163 76 -60 29 -191 90 -290 135 -99 46 -234
109 -300 140 -66 31 -196 92 -290 135 -93 43 -224 103 -290 135 -66 31 -138
65 -160 75 -231 105 -535 250 -535 256 0 12 86 -2 375 -62z m-2907 -1177 c2
-214 1 -230 -19 -277 -23 -54 -73 -104 -125 -126 -51 -21 -2506 -21 -2557 1
-50 21 -94 61 -120 109 -21 38 -22 56 -25 270 -1 159 1 233 9 242 10 12 240
14 1423 12 l1411 -3 3 -228z m7530 3 c2 -144 -1 -239 -8 -263 -14 -47 -71
-112 -121 -138 -37 -18 -73 -19 -1286 -19 -1187 0 -1250 1 -1288 19 -62 28
-121 98 -134 160 -15 73 -15 443 1 459 9 9 334 11 1423 10 l1410 -3 3 -225z
m-5223 -3035 l0 -1650 -1425 0 -1425 0 -3 1640 c-1 902 0 1646 3 1653 3 10
294 12 1427 10 l1423 -3 0 -1650z m2746 1426 c147 -38 360 -160 558 -320 53
-43 162 -130 242 -192 79 -62 156 -124 170 -138 14 -14 58 -56 96 -94 80 -77
119 -141 134 -221 17 -96 -24 -204 -116 -298 -50 -51 -138 -118 -155 -118 -4
0 -43 41 -86 92 -117 136 -353 367 -484 473 -181 145 -390 262 -620 344 -67
24 -77 31 -94 66 -28 56 -34 182 -12 239 61 160 181 215 367 167z m103 -1016
c16 -12 18 -27 17 -124 -2 -124 11 -186 45 -208 49 -32 134 18 169 99 11 24
20 45 22 47 4 5 121 -75 156 -107 15 -14 27 -35 27 -46 0 -61 -94 -173 -166
-196 -19 -6 -34 -12 -34 -13 0 -1 -3 -27 -6 -57 -15 -150 -72 -284 -141 -335
-43 -31 -55 -55 -27 -55 79 0 178 171 199 343 4 31 9 57 10 57 2 0 25 -11 52
-24 61 -30 121 -43 251 -51 98 -7 104 -9 128 -38 l25 -30 -34 -36 c-18 -20
-147 -159 -286 -308 -139 -150 -256 -273 -260 -273 -4 0 -34 11 -67 24 -32 13
-106 34 -164 46 -218 45 -379 163 -444 325 -20 50 -46 201 -46 267 0 7 -21 24
-46 37 -47 25 -94 76 -94 102 0 8 29 43 65 79 39 39 72 83 86 114 27 63 59
214 59 281 0 28 3 60 6 73 l6 22 237 0 c187 -1 240 -4 255 -15z m907 -816 c55
-39 99 -75 97 -79 -3 -8 -380 -423 -641 -705 -92 -99 -173 -180 -179 -180 -8
0 -34 61 -62 142 l-48 143 48 53 c398 435 659 707 671 703 7 -3 59 -38 114
-77z m214 -290 c167 -136 368 -378 519 -622 176 -285 266 -523 406 -1072 105
-410 211 -968 226 -1190 l7 -94 -28 -7 c-47 -12 -720 4 -875 20 -198 21 -214
23 -385 53 -237 40 -240 53 -20 72 298 27 412 57 450 121 19 34 20 52 23 511
l4 477 57 -5 c69 -7 160 17 211 54 61 45 120 107 120 125 0 14 -19 2 -73 -45
-92 -80 -164 -110 -252 -105 -57 4 -60 5 -63 32 -3 19 4 37 21 55 54 58 168
257 204 356 24 64 52 178 47 187 -10 15 -24 8 -24 -11 0 -34 -51 -182 -91
-266 -40 -83 -131 -215 -149 -215 -5 0 -10 12 -10 28 0 76 -20 628 -26 700 -4
59 -10 82 -19 82 -9 0 -12 -8 -9 -22 18 -85 31 -1603 16 -1815 -13 -171 -21
-174 -670 -234 -311 -29 -357 -31 -602 -25 -146 3 -326 12 -400 20 -347 38
-434 49 -555 69 l-130 22 -3 108 c-2 80 1 109 10 112 7 2 198 38 423 79 731
132 859 156 923 168 61 11 63 11 90 -14 15 -14 42 -33 60 -42 50 -26 176 -55
262 -62 41 -4 79 -7 84 -8 5 0 10 4 13 10 2 7 -24 14 -78 19 -145 12 -279 55
-322 103 -17 19 -17 28 -2 203 47 548 70 758 110 1004 49 304 98 440 186 519
60 54 116 71 204 62 37 -4 65 -3 65 3 0 13 -38 21 -111 21 -50 0 -77 -6 -117
-26 -154 -77 -215 -261 -287 -859 -14 -121 -31 -244 -38 -274 l-11 -55 -9 35
c-15 57 -2 472 17 569 55 268 133 463 297 742 40 68 101 182 135 253 35 72 66
134 70 138 9 9 16 4 99 -64z m-195 46 c0 -31 -67 -146 -220 -380 -87 -132
-172 -266 -189 -297 -44 -81 -100 -252 -115 -355 -11 -77 -15 -88 -32 -86 -29
2 -172 57 -186 71 -9 9 -9 34 1 114 23 184 21 181 129 299 427 468 596 649
603 649 5 0 9 -7 9 -15z m-3314 -1666 c187 -70 239 -266 105 -398 -100 -100
-285 -114 -402 -31 l-29 21 0 174 0 174 33 24 c80 59 194 73 293 36z m-1084
-96 c142 -49 327 -89 466 -99 88 -7 92 -8 92 -30 0 -16 -7 -25 -22 -28 -132
-28 -179 -40 -269 -71 -57 -20 -183 -75 -279 -123 -96 -48 -178 -88 -182 -90
-5 -2 -8 114 -8 257 l0 261 38 -16 c20 -10 94 -37 164 -61z m3501 -530 c-7
-80 5 -74 -280 -127 -338 -63 -650 -117 -688 -119 -30 -2 -30 -1 -30 48 0 49
1 50 35 58 109 23 937 175 950 173 10 -1 14 -12 13 -33z m-1725 -63 c83 -17
308 -51 542 -81 165 -21 150 -14 150 -64 0 -38 -3 -45 -20 -45 -44 0 -536 71
-654 95 -131 26 -256 32 -301 15 -15 -6 -35 -20 -46 -33 -24 -28 -25 -10 -3
62 12 42 21 55 47 67 40 18 151 12 285 -16z m18 -135 c66 -13 207 -36 314 -50
107 -14 236 -31 285 -38 l90 -12 3 -90 3 -90 -90 3 c-88 4 -90 4 -182 -42 -97
-47 -190 -69 -238 -57 -22 6 -27 15 -33 54 -9 64 -41 112 -95 144 -145 85
-323 -37 -298 -203 l6 -43 -47 14 c-26 8 -59 25 -72 39 l-25 24 17 129 c22
166 34 210 59 228 33 23 166 19 303 -10z m-1231 -1020 l0 -1010 -1705 -5
c-1351 -4 -1711 -8 -1734 -18 -53 -23 -86 -54 -116 -105 l-30 -52 0 -560 -1
-560 -70 -75 c-179 -192 -316 -388 -435 -624 -45 -89 -85 -161 -90 -161 -10 0
-19 4018 -9 4072 8 43 49 91 88 102 19 6 856 9 2067 8 l2035 -2 0 -1010z
m1255 813 c61 -31 90 -77 90 -143 0 -66 -29 -111 -90 -143 -138 -71 -284 84
-208 219 45 81 127 107 208 67z m890 -150 c124 -20 324 -46 445 -58 121 -12
229 -23 241 -25 19 -4 22 -14 27 -82 3 -43 13 -98 22 -122 8 -24 15 -47 15
-51 0 -5 -20 -28 -46 -52 -52 -50 -67 -95 -53 -160 6 -22 6 -44 2 -48 -4 -3
-42 -14 -84 -24 -154 -37 -186 -66 -208 -190 -13 -71 -34 -96 -140 -165 -80
-51 -338 -208 -503 -306 -54 -32 -98 -63 -98 -70 0 -7 -67 -50 -149 -95 -82
-45 -175 -103 -208 -129 -142 -114 -178 -252 -104 -399 42 -83 167 -235 295
-360 58 -57 106 -107 106 -111 0 -5 -19 -48 -42 -97 -43 -89 -43 -90 -42 -199
0 -98 4 -123 38 -230 110 -354 377 -985 643 -1522 l116 -233 -37 -52 c-20 -29
-52 -70 -71 -90 -18 -21 -32 -38 -30 -38 2 0 -36 -38 -83 -83 -48 -46 -126
-109 -173 -139 -177 -114 -214 -187 -119 -236 40 -21 56 -23 147 -20 67 2 99
0 95 -7 -3 -5 -18 -29 -34 -52 l-29 -43 -801 0 c-758 0 -800 1 -793 18 15 38
54 245 65 351 18 157 7 511 -19 651 -53 290 -159 573 -294 790 -41 65 -47 82
-47 129 l0 54 18 -24 c43 -55 145 -233 193 -335 138 -291 209 -585 227 -935
l7 -137 110 -125 c111 -126 131 -145 147 -129 15 15 26 204 23 377 -12 583
-218 1149 -582 1600 -45 55 -95 113 -112 129 l-31 30 0 580 0 581 51 90 c28
50 101 180 163 290 249 443 730 1300 732 1303 1 2 25 5 53 7 72 6 127 37 159
90 l27 44 65 0 c75 0 172 28 245 70 46 27 56 29 140 27 50 -1 191 -18 315 -38z
m3270 -181 c14 -26 14 -29 -3 -42 -42 -31 -172 -27 -172 6 0 8 23 26 50 41 63
35 104 34 125 -5z m-220 -113 c13 -15 -7 -128 -30 -173 -27 -52 -86 -104 -159
-141 -78 -39 -484 -142 -652 -166 -135 -19 -641 -16 -661 4 -8 8 7 39 57 119
150 239 165 259 203 281 79 44 315 71 737 82 371 10 494 8 505 -6z m102 -86
c86 -150 116 -229 93 -248 -35 -29 -88 47 -125 181 -21 76 -26 129 -12 129 4
0 24 -28 44 -62z m-392 -345 c77 -63 108 -95 120 -124 11 -26 11 -33 -4 -47
-14 -14 -35 -17 -119 -15 -92 2 -109 5 -164 32 -34 17 -92 37 -128 45 -58 12
-68 12 -81 -1 -22 -22 -5 -35 64 -49 82 -17 166 -60 228 -117 45 -40 54 -55
54 -82 0 -41 -22 -51 -77 -36 -26 7 -46 22 -62 46 -57 84 -264 245 -315 245
-7 0 -21 7 -32 15 -18 14 -18 15 11 14 33 -1 103 14 305 66 74 18 142 34 151
34 8 1 30 -11 49 -26z m2325 -163 l0 -135 -970 0 -970 0 -3 124 c-2 80 1 128
9 137 9 11 176 13 972 11 l962 -2 0 -135z m-2882 56 c-4 -21 1 -26 44 -40 86
-28 253 -150 253 -185 0 -27 -69 -135 -124 -194 -82 -87 -231 -176 -461 -278
-231 -101 -557 -206 -760 -243 -175 -32 -686 -29 -768 4 -12 5 -17 9 -10 9 21
1 235 106 306 150 48 29 75 40 90 36 15 -4 18 -3 9 3 -10 7 4 21 57 57 40 26
108 76 152 111 45 35 85 64 90 64 5 0 51 19 101 41 51 23 129 57 173 77 235
104 423 195 488 236 58 37 104 107 91 139 -8 21 16 26 131 30 50 2 102 4 116
5 23 2 26 -1 22 -22z m2785 -805 c1 -414 -1 -588 -9 -597 -9 -11 -161 -13
-832 -13 -452 0 -838 3 -857 7 l-35 8 -3 579 c-1 319 0 586 3 593 3 10 182 12
867 10 l863 -3 3 -584z m-1947 229 c16 -43 21 -80 22 -190 2 -122 0 -139 -20
-176 -43 -80 -122 -137 -228 -164 -109 -27 -578 -5 -871 41 -136 22 -166 31
-149 47 6 5 114 33 240 61 263 60 433 110 520 153 126 64 230 139 325 239 l95
99 23 -28 c12 -15 31 -52 43 -82z m-5193 -382 c9 -9 12 -140 12 -530 0 -462
-2 -518 -16 -518 -8 0 -45 24 -82 54 -101 81 -283 197 -422 270 -572 296
-1245 372 -1878 212 -346 -88 -743 -287 -1007 -507 -38 -32 -74 -54 -78 -50
-4 4 -6 229 -5 499 l3 490 25 28 c14 14 39 35 55 45 29 18 88 19 1705 19 1290
0 1679 -3 1688 -12z m4405 -174 c21 -4 37 -12 37 -20 0 -7 -42 -75 -93 -151
-51 -76 -210 -311 -352 -523 -389 -580 -425 -632 -425 -620 0 6 -52 66 -117
133 -134 140 -438 516 -426 527 4 4 170 91 368 192 358 184 627 329 780 419
84 49 132 58 228 43z m132 -248 c16 -39 28 -82 27 -97 -1 -17 7 -39 22 -56 14
-16 64 -124 111 -239 48 -115 89 -214 92 -221 3 -7 -21 -25 -59 -44 -204 -102
-424 -264 -604 -443 -280 -281 -470 -585 -594 -952 -15 -45 -24 -87 -20 -94
10 -16 24 -11 185 65 l134 64 23 53 c99 233 303 527 484 699 141 133 312 258
476 348 l77 42 12 -23 c10 -18 9 -24 -2 -30 -237 -136 -372 -233 -518 -373
-358 -345 -579 -787 -639 -1277 l-16 -138 -269 0 -269 0 6 28 c4 15 9 59 12
97 13 152 -83 308 -224 366 l-32 14 67 102 c65 96 70 101 103 102 49 1 60 16
60 80 0 52 5 62 72 165 68 101 79 113 157 163 46 30 135 96 198 146 107 85
113 93 113 127 0 24 -12 56 -35 95 l-36 58 237 351 c130 193 320 476 422 628
102 153 189 274 192 270 4 -4 19 -38 35 -76z m-5910 -300 c369 -57 720 -200
1020 -414 109 -78 251 -199 323 -275 45 -48 52 -61 52 -96 0 -22 -5 -43 -11
-47 -6 -4 -48 31 -96 80 -356 361 -776 576 -1298 663 -135 22 -532 25 -660 5
-320 -52 -565 -137 -835 -290 -179 -102 -375 -258 -516 -409 -44 -48 -75 -74
-82 -69 -7 4 -12 26 -12 49 0 40 4 46 112 152 401 392 889 615 1458 669 92 8
448 -4 545 -18z m7595 -385 c119 -22 291 -67 395 -104 72 -25 271 -122 279
-135 10 -16 -5 -42 -23 -42 -9 0 -25 6 -36 14 -27 19 -253 112 -345 143 -325
108 -706 128 -1058 57 -123 -24 -321 -83 -376 -111 -30 -16 -42 -10 -48 21 -2
17 12 25 87 54 118 44 327 97 440 111 50 6 101 13 115 15 14 3 122 3 240 1
165 -2 242 -8 330 -24z m-7565 -95 c300 -63 577 -194 810 -381 384 -308 629
-737 701 -1227 25 -170 15 -479 -20 -645 -153 -722 -679 -1278 -1387 -1468
-213 -57 -524 -76 -739 -46 -769 107 -1395 661 -1595 1411 -74 280 -81 573
-20 876 145 717 721 1306 1440 1470 165 37 236 43 465 40 194 -4 242 -8 345
-30z m4183 -360 c45 -38 82 -72 81 -75 -1 -9 -171 -153 -175 -148 -8 8 -34
212 -34 268 l0 60 23 -18 c12 -10 60 -49 105 -87z m3357 34 c134 -28 314 -89
413 -139 l82 -41 -34 -53 c-18 -28 -162 -266 -321 -527 -158 -261 -294 -481
-301 -489 -11 -12 -20 -12 -61 0 -70 20 -205 16 -276 -8 l-58 -20 -9 21 c-4
11 -24 60 -43 107 -140 336 -427 1042 -425 1044 9 8 191 68 260 86 161 41 242
48 463 45 167 -3 231 -9 310 -26z m-2604 -57 c63 -84 80 -112 89 -143 8 -29 6
-32 -119 -133 -193 -154 -345 -234 -536 -281 -165 -40 -242 -50 -405 -51 -127
0 -164 3 -202 18 -88 34 -67 64 148 209 88 59 210 150 271 203 l113 97 87 3
c90 3 282 47 428 99 39 13 75 24 80 25 6 1 27 -20 46 -46z m-7175 -103 c-1
-19 -13 -53 -27 -75 -164 -257 -236 -405 -311 -645 l-15 -45 -124 0 -124 0 0
73 0 72 125 59 125 59 80 158 c78 155 181 320 233 377 30 32 42 22 38 -33z
m8721 -203 c45 -111 104 -256 131 -322 28 -66 90 -219 140 -340 50 -121 99
-241 110 -267 l21 -46 -21 -19 c-43 -39 -108 -137 -129 -194 l-22 -59 -633 0
c-348 0 -635 3 -637 8 -8 12 21 208 44 300 97 394 359 779 683 1006 80 56 209
134 221 135 6 1 47 -90 92 -202z m1880 -49 c187 -167 349 -389 442 -605 256
-593 178 -1256 -210 -1773 -276 -367 -710 -619 -1174 -681 -133 -17 -454 -6
-575 20 -464 100 -860 368 -1117 754 -58 89 -161 287 -178 344 l-6 23 658 2
658 3 43 65 c24 36 47 71 51 79 8 12 19 11 74 -7 189 -62 376 -20 510 115 194
193 195 505 1 695 -30 29 -54 57 -54 62 0 4 26 52 59 105 299 492 510 838 548
899 l45 72 71 -50 c40 -27 109 -82 154 -122z m-3897 -226 c0 -5 -8 -17 -19
-26 -14 -13 -33 -16 -82 -14 -69 4 -66 7 26 31 75 19 75 19 75 9z m28 -144 c2
-56 0 -68 -15 -76 -10 -5 -126 -9 -258 -8 l-240 1 -3 64 c-2 35 -1 70 2 78 5
11 51 13 258 11 l253 -3 3 -67z m-222 -146 c-15 -15 -16 -15 -16 5 0 12 6 23
13 26 19 6 21 -13 3 -31z m-58 -234 c-3 -226 -5 -263 -18 -263 -13 0 -15 37
-18 263 -2 258 -2 262 18 262 20 0 20 -4 18 -262z m-78 -121 c0 -106 4 -157
12 -165 20 -20 86 -15 98 7 5 11 10 83 10 160 0 109 3 141 13 141 32 0 120
-56 161 -101 123 -137 112 -351 -24 -471 -70 -63 -121 -82 -220 -82 -77 -1
-92 2 -152 32 -119 59 -183 162 -183 297 0 89 20 146 76 216 39 49 152 116
202 119 4 0 7 -69 7 -153z m3141 3 c364 -69 496 -528 224 -779 -179 -165 -449
-159 -621 13 -187 187 -184 473 7 650 110 102 248 143 390 116z m-3590 -518
c-76 -115 -147 -213 -157 -217 -11 -4 -62 -10 -114 -12 -102 -6 -170 11 -170
41 0 27 52 76 151 141 113 75 220 177 329 318 l75 96 12 -79 13 -80 -139 -208z
m255 47 c22 -18 63 -43 93 -57 l54 -25 -173 -58 c-95 -33 -177 -59 -182 -59
-5 0 17 37 48 83 84 121 104 147 113 147 5 0 26 -14 47 -31z m1136 -99 c5
-108 26 -263 45 -337 4 -19 1 -23 -20 -23 -14 0 -42 9 -61 21 -35 21 -41 21
-751 17 -485 -2 -715 0 -715 7 0 6 8 18 18 27 9 8 32 40 50 71 20 33 44 59 60
65 75 28 156 51 164 46 5 -3 8 -40 6 -83 -1 -42 1 -82 6 -89 11 -19 549 -17
565 2 8 9 11 47 9 107 l-3 94 -102 3 -103 3 0 44 c0 36 3 45 18 45 27 0 119
46 160 80 l37 30 305 -2 305 -3 7 -125z m1629 70 c11 -102 44 -178 114 -264
l44 -55 -32 -55 -32 -55 -651 -1 -651 0 -22 103 c-25 123 -41 251 -41 329 l0
58 633 -2 632 -3 6 -55z m-2503 -162 c-2 -84 -6 -103 -18 -103 -12 0 -16 19
-18 103 -3 97 -2 102 18 102 20 0 21 -5 18 -102z m-78 52 l0 -30 -70 0 c-38 0
-70 3 -70 8 0 4 30 17 68 28 37 12 68 22 70 23 1 1 2 -12 2 -29z m8 -122 l3
-58 49 0 49 0 3 58 3 57 78 3 c50 2 84 -1 93 -9 14 -12 19 -76 8 -116 l-6 -23
-254 0 c-196 0 -254 3 -255 13 -2 32 3 122 8 130 2 4 53 6 111 5 l107 -3 3
-57z m1068 -442 c194 -525 582 -951 1089 -1192 113 -54 304 -122 410 -145 52
-12 -158 -15 -1495 -19 -855 -3 -2358 -3 -3340 0 l-1785 5 120 31 c202 53 424
146 604 253 58 35 225 152 280 198 18 15 60 49 91 75 56 46 196 201 256 283
16 22 32 42 35 45 42 32 299 494 299 538 0 9 120 12 568 12 312 0 1049 3 1637
6 904 5 1072 9 1085 21 9 9 31 13 58 11 l44 -3 44 -119z"/>
<path d="M5208 12733 c-21 -2 -38 -7 -38 -11 0 -4 14 -19 32 -34 30 -24 33
-31 33 -84 0 -45 -4 -59 -19 -68 -125 -75 -228 -173 -267 -256 -47 -98 -51
-114 -55 -213 -2 -76 -7 -103 -22 -125 -33 -47 -103 -175 -128 -234 -30 -73
-72 -217 -82 -282 -12 -84 -7 -395 7 -461 116 -533 543 -930 1077 -1000 63 -8
139 -15 169 -15 80 0 261 27 340 51 119 36 117 36 189 -17 79 -59 114 -72 186
-73 93 -1 179 50 221 132 30 58 33 120 11 220 l-20 87 29 38 c154 198 241 381
285 597 23 115 21 359 -5 485 -91 444 -413 807 -837 945 -136 45 -264 65 -421
65 l-121 0 -30 54 c-51 90 -133 148 -257 182 -53 15 -216 25 -277 17z m269
-47 c80 -21 140 -56 189 -108 50 -54 103 -157 111 -217 5 -35 3 -40 -23 -52
-55 -27 -31 -34 126 -40 199 -8 311 -38 427 -116 153 -101 272 -333 261 -508
-5 -69 -18 -105 -59 -156 l-21 -27 54 -64 c30 -35 65 -86 79 -113 42 -87 28
-180 -33 -218 -24 -16 -70 23 -123 104 -36 55 -49 68 -59 59 -20 -16 -156
-224 -156 -237 0 -7 40 -52 89 -100 180 -178 232 -314 151 -395 -51 -51 -106
-35 -206 59 -41 38 -130 160 -184 251 -24 40 -49 77 -56 83 -9 7 -34 -1 -91
-30 -92 -47 -201 -84 -299 -101 -91 -16 -304 -9 -359 13 l-40 16 48 0 c67 1
113 25 142 76 66 112 -11 247 -141 247 -158 0 -217 -210 -84 -299 47 -33 27
-28 -35 7 -152 87 -232 272 -205 473 13 93 57 223 111 327 21 42 39 81 39 87
0 6 -25 23 -54 37 -152 75 -201 316 -104 511 36 71 160 198 231 235 66 35 82
96 51 199 l-7 24 89 -7 c49 -3 112 -13 141 -20z m609 -247 c445 -62 833 -379
989 -809 44 -123 65 -254 65 -409 0 -217 -35 -369 -126 -555 -41 -82 -152
-247 -172 -253 -4 -2 -42 151 -85 340 -63 276 -77 356 -76 413 2 62 -2 80 -34
150 -20 43 -43 107 -52 142 -14 56 -14 67 0 108 34 100 14 221 -64 379 -74
151 -177 245 -339 311 -72 29 -212 54 -302 54 l-67 0 -6 48 c-4 26 -9 57 -13
70 -6 22 -5 22 99 22 58 0 140 -5 183 -11z m-1161 -586 c29 -65 63 -104 115
-135 19 -12 36 -23 38 -24 2 -1 -15 -40 -37 -86 -78 -164 -106 -288 -99 -437
6 -115 30 -185 92 -269 69 -94 189 -161 328 -184 73 -12 81 -16 193 -99 28
-20 210 -152 405 -294 195 -141 356 -260 358 -265 4 -10 -81 -35 -188 -57
-106 -22 -331 -21 -443 1 -448 87 -810 407 -951 838 -78 241 -73 561 14 795
33 88 131 273 144 273 3 0 16 -26 31 -57z m472 -805 c8 -6 21 -24 29 -39 64
-124 -96 -250 -201 -158 -65 57 -66 139 -2 198 47 43 122 42 174 -1z"/>
<path d="M5243 12182 c-51 -8 -70 -83 -30 -120 48 -45 117 -14 117 51 0 48
-38 77 -87 69z m47 -47 c26 -32 -13 -81 -47 -59 -35 22 -23 74 17 74 10 0 23
-7 30 -15z"/>
<path d="M5744 12095 c-84 -43 -85 -164 -1 -209 92 -50 198 41 164 141 -22 66
-101 99 -163 68z m114 -48 c34 -32 30 -88 -9 -121 -37 -31 -54 -32 -96 -6 -43
26 -54 77 -24 119 32 45 84 48 129 8z"/>
<path d="M5566 11596 c-62 -58 -50 -150 27 -196 40 -25 73 -25 117 -2 115 63
72 232 -60 232 -41 0 -54 -5 -84 -34z m149 -26 c51 -53 29 -137 -41 -154 -38
-10 -93 19 -108 55 -39 93 79 172 149 99z"/>
<path d="M6184 11556 c-33 -33 -36 -41 -31 -74 13 -77 96 -107 156 -56 61 51
30 148 -51 161 -33 5 -41 2 -74 -31z m106 -19 c27 -23 26 -72 -2 -91 -33 -23
-64 -19 -87 11 -48 60 31 130 89 80z"/>
<path d="M5871 11084 c-47 -60 -10 -144 64 -144 74 0 111 84 64 144 -16 21
-29 26 -64 26 -35 0 -48 -5 -64 -26z m101 -21 c34 -31 11 -93 -35 -93 -27 0
-57 28 -57 53 0 48 56 73 92 40z"/>
<path d="M9840 11599 c-28 -12 -60 -38 -60 -51 0 -13 39 -9 64 7 40 27 78 -7
94 -82 5 -23 14 -38 22 -38 20 0 23 26 10 74 -20 75 -75 113 -130 90z"/>
<path d="M9811 11416 c-19 -22 -23 -78 -9 -106 17 -31 48 -38 65 -14 16 21 17
88 3 115 -12 22 -43 25 -59 5z"/>
<path d="M9911 10985 c-36 -63 -67 -87 -125 -95 -27 -3 -41 -10 -41 -20 0 -38
95 -17 152 33 39 34 75 101 66 124 -9 23 -20 14 -52 -42z"/>
<path d="M4033 7850 c-59 -13 -136 -65 -170 -115 -50 -72 -66 -141 -61 -254 9
-185 79 -272 241 -302 115 -21 257 14 306 77 30 38 29 107 -1 128 -42 30 -74
20 -128 -36 -48 -52 -50 -53 -105 -53 -53 0 -59 2 -95 41 -21 23 -43 59 -49
80 -14 50 -14 148 0 197 23 85 111 141 183 117 18 -5 50 -28 71 -50 44 -45 79
-51 116 -22 26 22 30 68 9 108 -35 65 -203 110 -317 84z"/>
<path d="M3550 7830 c-11 -11 -22 -30 -25 -42 -3 -13 -5 -146 -3 -296 l3 -274
24 -19 c30 -24 72 -24 102 0 l24 19 0 297 0 297 -24 19 c-30 25 -76 24 -101
-1z"/>
<path d="M4500 7820 c-19 -19 -20 -33 -20 -303 0 -240 2 -286 16 -305 15 -22
20 -22 219 -22 223 0 235 3 235 59 0 49 -20 56 -174 61 l-141 5 -3 63 c-2 44
1 63 10 67 7 2 59 5 114 7 110 4 134 14 134 55 0 57 -11 63 -128 63 -71 0
-112 4 -120 12 -16 16 -16 110 0 126 8 8 53 12 134 12 98 0 126 3 138 16 19
18 21 75 4 92 -9 9 -68 12 -205 12 -180 0 -194 -1 -213 -20z"/>
<path d="M3697 6996 c-126 -46 -197 -160 -199 -324 -2 -155 48 -253 156 -310
47 -25 60 -27 161 -26 122 0 158 11 217 63 42 37 54 80 33 121 -15 29 -54 45
-85 35 -10 -3 -40 -28 -67 -55 -45 -45 -55 -50 -95 -50 -57 0 -104 30 -132 85
-25 48 -34 170 -17 233 23 82 103 141 170 125 14 -3 44 -22 66 -43 22 -21 50
-43 62 -49 28 -14 67 0 88 33 37 56 -19 131 -117 161 -63 18 -189 19 -241 1z"/>
<path d="M5592 6994 c-19 -10 -40 -27 -48 -39 -8 -12 -47 -119 -88 -237 -40
-118 -76 -220 -79 -225 -3 -5 -11 -29 -16 -53 -11 -51 0 -83 35 -99 48 -21 94
17 109 89 12 58 17 60 140 60 78 0 116 -4 122 -12 6 -7 18 -37 28 -66 12 -37
24 -56 43 -65 51 -25 102 5 102 59 0 28 -138 448 -175 531 -27 61 -111 88
-173 57z m102 -259 c24 -78 31 -114 24 -122 -13 -16 -129 -18 -144 -3 -8 8 0
45 23 122 18 61 36 115 39 120 11 18 23 -6 58 -117z"/>
<path d="M6125 6996 c-16 -7 -39 -23 -50 -36 -19 -21 -20 -38 -23 -301 -3
-269 -2 -279 18 -299 28 -28 84 -27 104 2 13 18 16 56 16 203 0 99 5 187 10
195 5 8 10 13 10 10 0 -12 128 -377 138 -396 28 -53 118 -45 140 12 12 31 91
261 114 334 8 25 19 45 24 45 5 0 11 -89 15 -200 3 -110 6 -201 7 -203 1 -2
16 -9 33 -16 40 -17 64 -11 89 22 19 23 20 41 20 281 0 292 -4 311 -73 345
-33 16 -45 17 -76 7 -20 -6 -46 -21 -58 -33 -11 -13 -50 -111 -86 -218 -37
-107 -70 -194 -74 -194 -4 1 -36 83 -70 182 -68 199 -85 237 -111 251 -33 18
-87 21 -117 7z"/>
<path d="M4205 6986 c-19 -14 -20 -28 -23 -303 -3 -282 -2 -290 18 -316 17
-21 30 -27 59 -27 60 0 75 25 81 133 l5 92 46 3 47 3 56 -109 c57 -112 66
-122 116 -122 30 0 70 39 70 68 0 8 -21 55 -46 105 l-46 90 43 41 c52 51 69
90 69 159 0 78 -32 135 -95 167 -46 23 -61 25 -215 28 -134 3 -169 1 -185 -12z
m305 -123 c42 -38 45 -102 6 -141 -23 -23 -34 -26 -98 -27 l-73 0 -3 84 c-2
46 -1 90 2 98 4 9 25 13 71 13 56 0 69 -3 95 -27z"/>
<path d="M4840 6980 c-19 -19 -20 -33 -20 -310 0 -278 1 -291 20 -310 20 -20
32 -21 213 -20 180 1 193 3 215 22 28 27 28 59 1 84 -18 16 -42 20 -158 24
l-136 5 0 65 0 65 113 5 c98 4 116 8 128 24 19 26 18 49 -3 75 -16 18 -30 21
-128 23 l-110 3 0 70 0 70 130 3 c102 2 133 6 147 19 24 21 23 58 -2 83 -19
19 -33 20 -205 20 -172 0 -186 -1 -205 -20z"/>
<path d="M13340 6373 c-24 -9 -30 -25 -30 -75 0 -37 4 -50 19 -58 12 -6 120
-10 280 -10 294 0 291 -1 291 75 0 74 -5 75 -295 74 -137 0 -257 -3 -265 -6z
m534 -45 c7 -11 7 -26 0 -45 l-9 -28 -254 -3 c-272 -3 -281 -1 -281 47 0 51 5
52 279 49 226 -3 255 -5 265 -20z"/>
<path d="M5465 3107 c-44 -20 -102 -90 -115 -138 -24 -90 14 -184 94 -234 41
-25 60 -30 111 -30 204 1 284 249 122 379 -34 27 -47 31 -110 33 -45 2 -83 -2
-102 -10z m182 -48 c88 -55 106 -184 35 -262 -48 -54 -139 -71 -201 -39 -82
41 -119 133 -87 216 40 104 158 144 253 85z"/>
<path d="M15325 12060 c-3 -6 1 -7 9 -4 18 7 21 14 7 14 -6 0 -13 -4 -16 -10z"/>
<path d="M8950 9776 c0 -2 7 -7 16 -10 8 -3 12 -2 9 4 -6 10 -25 14 -25 6z"/>
</g>
</svg>
